<?xml version="1.0" encoding="utf-8"?>
<!-- Generated by IcoMoon.io -->
<!DOCTYPE svg PUBLIC "-//W3C//DTD SVG 1.1//EN" "http://www.w3.org/Graphics/SVG/1.1/DTD/svg11.dtd">
<svg version="1.1" xmlns="http://www.w3.org/2000/svg" xmlns:xlink="http://www.w3.org/1999/xlink" width="25" height="32" viewBox="0 0 25 32">
<g>
</g>
	<path d="M8.804 8.625q0.286 0 0.491-0.205t0.205-0.491-0.205-0.491-0.491-0.205-0.482 0.205-0.196 0.491 0.196 0.491 0.482 0.205zM16.339 8.625q0.286 0 0.482-0.205t0.196-0.491-0.196-0.491-0.482-0.205-0.491 0.205-0.205 0.491 0.205 0.491 0.491 0.205zM1.839 11.911q0.75 0 1.286 0.536t0.536 1.286v7.679q0 0.768-0.527 1.304t-1.295 0.536-1.304-0.536-0.536-1.304v-7.679q0-0.75 0.536-1.286t1.304-0.536zM20.768 12.25v11.893q0 0.821-0.571 1.393t-1.375 0.571h-1.339v4.054q0 0.768-0.536 1.304t-1.304 0.536-1.304-0.536-0.536-1.304v-4.054h-2.464v4.054q0 0.768-0.536 1.304t-1.304 0.536q-0.75 0-1.286-0.536t-0.536-1.304l-0.018-4.054h-1.321q-0.821 0-1.393-0.571t-0.571-1.393v-11.893h16.393zM16.625 5.018q1.911 0.982 3.054 2.741t1.143 3.848h-16.518q0-2.089 1.143-3.848t3.071-2.741l-1.268-2.339q-0.125-0.232 0.089-0.357 0.232-0.107 0.357 0.107l1.286 2.357q1.696-0.75 3.589-0.75t3.589 0.75l1.286-2.357q0.125-0.214 0.357-0.107 0.214 0.125 0.089 0.357zM25.143 13.732v7.679q0 0.768-0.536 1.304t-1.304 0.536q-0.75 0-1.286-0.536t-0.536-1.304v-7.679q0-0.768 0.536-1.295t1.286-0.527q0.768 0 1.304 0.527t0.536 1.295z" fill="#000000" />
</svg>
