<?xml version="1.0" encoding="utf-8"?>
<!-- Generated by IcoMoon.io -->
<!DOCTYPE svg PUBLIC "-//W3C//DTD SVG 1.1//EN" "http://www.w3.org/Graphics/SVG/1.1/DTD/svg11.dtd">
<svg version="1.1" xmlns="http://www.w3.org/2000/svg" xmlns:xlink="http://www.w3.org/1999/xlink" width="32" height="32" viewBox="0 0 32 32">
<g>
</g>
	<path d="M20.571 14.286v3.429q0 0.232-0.17 0.402t-0.402 0.17h-6.286v3.429q0 0.25-0.161 0.411t-0.411 0.161q-0.214 0-0.429-0.179l-5.696-5.696q-0.161-0.161-0.161-0.411t0.161-0.411l5.714-5.714q0.161-0.161 0.411-0.161 0.232 0 0.402 0.17t0.17 0.402v3.429h6.286q0.232 0 0.402 0.17t0.17 0.402zM23.429 16q0-2.643-1.304-4.875t-3.536-3.536-4.875-1.304-4.875 1.304-3.536 3.536-1.304 4.875 1.304 4.875 3.536 3.536 4.875 1.304 4.875-1.304 3.536-3.536 1.304-4.875zM27.429 16q0 3.732-1.839 6.884t-4.991 4.991-6.884 1.839-6.884-1.839-4.991-4.991-1.839-6.884 1.839-6.884 4.991-4.991 6.884-1.839 6.884 1.839 4.991 4.991 1.839 6.884z" fill="#000000" />
</svg>
