<?xml version="1.0" encoding="UTF-8" standalone="no"?>
<svg width="75px" height="77px" viewBox="0 0 75 77" version="1.1" xmlns="http://www.w3.org/2000/svg" xmlns:xlink="http://www.w3.org/1999/xlink" xmlns:sketch="http://www.bohemiancoding.com/sketch/ns">
    <!-- Generator: Sketch 3.3.2 (12043) - http://www.bohemiancoding.com/sketch -->
    <title>Oval 1 + Imported Layers</title>
    <desc>Created with Sketch.</desc>
    <defs></defs>
    <g id="Welcome" stroke="none" stroke-width="1" fill="none" fill-rule="evenodd" sketch:type="MSPage">
        <g id="Desktop-Copy" sketch:type="MSArtboardGroup" transform="translate(-487.000000, -340.000000)">
            <g id="box-two" sketch:type="MSLayerGroup" transform="translate(463.000000, 326.000000)">
                <g id="Oval-1-+-Imported-Layers" transform="translate(24.000000, 14.000000)" sketch:type="MSShapeGroup">
                    <circle id="Oval-1" fill="#DE6734" cx="37.5" cy="37.5" r="37.5"></circle>
                    <path d="M16.002301,43.8465793 C17.2931441,49.4168101 23.0374382,53.4115024 28.7277716,52.6415024 C35.0319088,51.7885793 35.4543206,45.296887 40.5232618,42.7533485 C46.6056539,39.7012716 55.2874382,44.4270408 58.0166735,35.4265024 C65.2457324,11.5895024 15.6110853,19.3106562 16.002301,43.8465793 L16.002301,43.8465793 Z M40.0654382,40.3705793 C36.2004971,42.4072716 32.7748304,43.4996562 32.4139677,42.8100408 C32.0531049,42.1204254 34.8936343,39.9102716 38.7585755,37.8735793 C42.6235167,35.836887 46.0491833,34.7445024 46.4100461,35.4341177 C46.7709088,36.1237331 43.9303794,38.333887 40.0654382,40.3705793 L40.0654382,40.3705793 Z" id="Imported-Layers" fill="#FFFFFF"></path>
                </g>
            </g>
        </g>
    </g>
</svg>