<?xml version="1.0" encoding="utf-8"?>
<!-- Generated by IcoMoon.io -->
<!DOCTYPE svg PUBLIC "-//W3C//DTD SVG 1.1//EN" "http://www.w3.org/Graphics/SVG/1.1/DTD/svg11.dtd">
<svg version="1.1" xmlns="http://www.w3.org/2000/svg" xmlns:xlink="http://www.w3.org/1999/xlink" width="32" height="32" viewBox="0 0 32 32">
<g>
</g>
	<path d="M21.375 18.286h-1.946q-0.464 0-0.804-0.339t-0.339-0.804v-2.286q0-0.464 0.339-0.804t0.804-0.339h1.946q-0.571-1.929-2.009-3.366t-3.366-2.009v1.946q0 0.464-0.339 0.804t-0.804 0.339h-2.286q-0.464 0-0.804-0.339t-0.339-0.804v-1.946q-1.929 0.571-3.366 2.009t-2.009 3.366h1.946q0.464 0 0.804 0.339t0.339 0.804v2.286q0 0.464-0.339 0.804t-0.804 0.339h-1.946q0.571 1.929 2.009 3.366t3.366 2.009v-1.946q0-0.464 0.339-0.804t0.804-0.339h2.286q0.464 0 0.804 0.339t0.339 0.804v1.946q1.929-0.571 3.366-2.009t2.009-3.366zM27.429 14.857v2.286q0 0.464-0.339 0.804t-0.804 0.339h-2.554q-0.661 2.875-2.759 4.973t-4.973 2.759v2.554q0 0.464-0.339 0.804t-0.804 0.339h-2.286q-0.464 0-0.804-0.339t-0.339-0.804v-2.554q-2.875-0.661-4.973-2.759t-2.759-4.973h-2.554q-0.464 0-0.804-0.339t-0.339-0.804v-2.286q0-0.464 0.339-0.804t0.804-0.339h2.554q0.661-2.875 2.759-4.973t4.973-2.759v-2.554q0-0.464 0.339-0.804t0.804-0.339h2.286q0.464 0 0.804 0.339t0.339 0.804v2.554q2.875 0.661 4.973 2.759t2.759 4.973h2.554q0.464 0 0.804 0.339t0.339 0.804z" fill="#000000" />
</svg>
