<?xml version="1.0" encoding="utf-8"?>
<!-- Generator: Adobe Illustrator 15.0.0, SVG Export Plug-In . SVG Version: 6.00 Build 0)  -->
<!DOCTYPE svg PUBLIC "-//W3C//DTD SVG 1.1 Tiny//EN" "http://www.w3.org/Graphics/SVG/1.1/DTD/svg11-tiny.dtd">
<svg version="1.1" baseProfile="tiny" id="Layer_1" xmlns="http://www.w3.org/2000/svg" xmlns:xlink="http://www.w3.org/1999/xlink"
	 x="0px" y="0px" width="800.416px" height="115.217px" viewBox="0 242.322 800.416 115.217" overflow="inherit"
	 xml:space="preserve">
<path d="M791.681,311.646c-9.982-7.21-22.6-8.318-34.246-11.23c-3.466-1.109-7.625-1.941-9.428-5.407
	c0-5.962,7.21-6.933,11.646-6.101c4.159,0.416,5.962,4.714,7.903,7.764c9.844,0.139,19.826,0.139,29.671,0
	c-1.387-6.517-3.467-13.449-9.013-17.608c-10.26-8.18-24.264-8.874-36.88-8.458c-13.588,0.555-28.839,5.962-34.107,19.549
	c0.555-15.944-0.139-31.889,0.415-47.833h-33.137c0,12.756-0.139,25.373,0.139,38.128c-11.924-13.033-34.662-13.449-46.862-0.555
	c-6.101,5.962-9.429,14.003-11.37,22.045c-0.276-8.597-1.108-18.579-8.734-24.125c-9.844-6.933-22.461-7.071-33.969-7.349
	c-12.479,0.416-26.065,1.109-36.188,9.151c-5.546,4.298-6.654,11.508-9.012,17.747c-4.021-12.617-15.528-21.768-28.146-24.818
	c-18.856-4.853-41.317-1.664-54.489,13.726c0-5.269,0-10.399,0-15.667c-6.238-0.139-12.755-0.139-18.301,3.189
	c-5.685,3.189-8.735,9.151-11.646,14.697c0.139-5.269,0.139-10.398,0.139-15.667c-10.122,0-20.104,0-30.226,0
	c0,14.835-0.139,29.671,0.139,44.506c-9.983-12.34-26.482-13.448-40.763-17.054c-3.605-1.248-9.844-2.496-8.458-7.625
	c2.357-4.298,8.042-4.298,12.201-3.328c3.744,0.693,5.13,4.714,6.932,7.487c9.844,0.139,19.827,0,29.671,0
	c-1.387-6.932-3.744-14.281-9.983-18.44c-11.23-7.903-25.927-8.319-39.099-7.349c-11.646,1.248-25.511,5.823-29.948,17.747
	c-0.971,7.209-2.773,15.528,1.941,21.768c4.991,6.933,13.726,9.705,21.768,11.646c7.349,1.941,15.113,2.357,21.907,5.685
	c3.604,1.387,4.021,6.794,1.109,9.013c-3.882,3.188-9.706,3.05-14.142,1.108c-3.605-1.386-4.714-5.546-6.239-8.734
	c-8.18-0.139-16.36,0-24.541,0c-0.832-5.823-2.08-12.201-6.933-16.083c-11.092-9.705-26.62-9.705-39.931-14.143
	c-2.634-0.97-7.071-3.05-5.269-6.516c1.941-4.437,8.042-4.437,12.062-3.466c3.744,0.832,5.13,4.714,7.071,7.487
	c8.458,0,16.915,0,25.373,0.277c2.08,0.971,3.327-1.109,3.604-2.773c-0.971-10.121-9.29-18.302-19.272-20.797
	c-15.251-4.021-32.444-4.159-46.863,2.773c-8.042,3.744-12.894,11.785-13.726,20.52c-4.437-11.23-14.142-19.827-25.65-23.154
	c-19.549-5.962-43.397-2.912-57.262,13.311c0.139-5.269,0.139-10.676,0.139-15.945c-6.101-0.139-12.479-0.139-17.886,3.189
	c-6.101,3.189-9.29,9.706-11.924,15.667c0.139-5.546,0.139-11.092,0-16.638c-9.982,0-19.827,0-29.809,0
	c0,9.844-0.139,19.688,0.277,29.394c-1.941-9.013-6.239-17.886-14.003-23.155c-10.676-7.487-24.264-9.428-36.881-8.458
	c-12.201,0.971-24.541,5.823-32.305,15.529C3.882,292.513,1.387,300.416,0,308.319v12.339c1.109,9.013,4.575,17.886,11.23,24.125
	c7.21,7.487,17.331,10.814,27.175,12.756H54.35c7.903-0.971,15.944-2.912,22.738-7.349c8.042-4.853,12.617-13.31,15.251-21.906
	c-0.277,9.012-0.139,18.163-0.139,27.175c10.953,0,21.906,0.139,32.998,0c0-9.982-0.139-19.826,0-29.809
	c0.277-6.239,0.971-13.033,5.407-17.747c3.605-3.744,9.012-4.298,13.865-5.269c-1.802,12.062-1.664,25.233,5.13,35.771
	c7.071,11.924,20.936,17.747,34.107,19.134h13.587c14.419-1.248,28.839-8.735,35.632-22.045c1.941,4.298,3.744,8.734,7.21,11.924
	c7.209,6.655,17.192,9.15,26.621,9.982h15.251c12.479-1.109,26.343-4.853,33.415-16.222c6.239,10.26,18.024,14.558,29.393,16.222
	h19.272c12.062-1.525,25.095-5.546,32.028-16.499c-0.139,4.853-0.139,9.566-0.139,14.419c10.954,0,22.045,0,32.999,0
	c0.693-13.864-1.803-28.007,1.941-41.594c2.218-7.626,10.398-10.537,17.47-11.23c-1.803,12.339-1.664,25.927,5.546,36.603
	c7.209,11.369,20.658,16.915,33.553,18.302h13.587c13.311-1.248,26.482-7.487,33.969-18.995c1.664,4.021,3.189,8.319,6.517,11.23
	c4.437,4.438,10.676,6.378,16.638,7.626h14.143c8.457-1.109,16.222-4.991,23.016-10.121c0.416,2.634,0.971,5.407,1.525,8.041
	c11.508,0,23.016,0,34.662,0c-2.08-3.327-4.854-6.517-4.854-10.537c-0.277-5.546,0-10.953-0.139-16.499
	c1.941,6.101,4.021,12.34,8.319,17.192c5.13,6.517,13.033,9.982,20.936,11.924h12.34c8.181-0.971,14.835-6.239,19.966-12.34
	c0,3.467,0,6.794,0,10.26c9.982,0,19.826,0,29.809,0c0-4.437,0-8.734-0.139-13.171c7.21,9.705,18.995,14.28,30.642,15.251h15.251
	c9.706-0.971,19.827-2.912,27.73-9.012c4.853-3.605,7.625-9.151,9.012-14.975v-8.734
	C798.752,319.688,796.118,314.696,791.681,311.646z M92.201,323.293c-10.676,0-21.491,0-32.167,0
	c-1.109,2.911-1.941,5.962-3.882,8.457c-5.13,5.823-15.944,4.576-19.827-2.079c-2.773-4.437-3.328-9.982-3.466-15.113
	c0.139-5.823,0.693-12.062,4.298-17.053c4.298-6.101,14.558-6.378,19.133-0.416c1.525,2.218,2.08,4.853,2.912,7.348
	c11.092,0,22.045,0,32.999,0C92.201,310.676,92.201,317.054,92.201,323.293z M200.347,330.642
	c-4.298,6.378-15.113,6.517-19.549,0.139c-4.437-6.239-4.714-14.42-4.021-21.769c0.832-6.516,3.882-14.28,11.092-15.667
	c3.466-0.832,7.487-0.277,10.26,2.219c4.991,4.437,6.239,11.369,6.516,17.747C204.367,319.134,203.952,325.512,200.347,330.642z
	 M270.225,338.683c-4.298-1.109-6.1-5.269-7.071-9.15c-9.29-0.139-18.579,0-27.868,0c1.664-6.517,2.357-13.172,2.08-19.966
	c8.735,11.785,24.263,12.895,37.435,15.807c4.021,1.108,9.982,2.079,10.537,7.209C284.645,339.515,275.633,340.624,270.225,338.683z
	 M508.146,315.806c-0.277,5.407-1.109,11.23-4.714,15.528c-4.853,5.962-15.667,5.27-19.55-1.663
	c-3.743-6.655-4.298-14.697-3.327-22.045c0.832-6.101,4.159-13.033,10.676-14.559c3.882-0.97,8.181-0.139,10.953,2.773
	C507.452,301.248,508.423,308.873,508.146,315.806z M541.144,315.528c0.139-5.546-0.139-11.092-2.356-16.222
	c10.676-1.109,21.352-0.416,32.027-0.555c1.387-2.912,2.773-6.377,6.239-7.209c4.853-1.248,11.23-1.525,15.112,2.357
	c2.357,2.634,0.971,6.655-1.94,8.042c-5.269,2.634-11.369,2.772-17.192,3.604C561.941,306.655,550.156,308.181,541.144,315.528z
	 M590.364,333.553c-4.021,5.823-12.479,6.794-18.44,3.743c-3.189-1.663-4.021-5.962-2.219-8.873c1.803-3.05,5.407-4.021,8.458-4.853
	c5.269-1.248,10.398-2.357,15.528-4.159C593.275,324.125,593.275,329.394,590.364,333.553z M683.119,326.62
	c-3.466,7.903-16.222,10.122-21.49,2.773c-3.604-4.991-3.743-11.646-3.327-17.608c0.416-5.823,2.772-12.756,8.873-14.835
	c5.685-2.218,12.895,0,15.667,5.685C686.586,309.982,686.586,319.272,683.119,326.62z M764.645,337.435
	c-4.159,2.773-9.844,2.773-14.142,0.416c-3.328-1.663-4.299-5.407-5.546-8.457c-9.151,0.139-18.302,0-27.453,0
	c0-8.042,0.139-15.944-0.139-23.986c3.883,9.428,13.588,14.42,23.154,16.36c7.903,2.219,16.361,2.496,23.709,6.239
	C768.111,329.81,767.973,335.355,764.645,337.435z"/>
</svg>
