<?xml version="1.0" encoding="utf-8"?>
<!-- Generated by IcoMoon.io -->
<!DOCTYPE svg PUBLIC "-//W3C//DTD SVG 1.1//EN" "http://www.w3.org/Graphics/SVG/1.1/DTD/svg11.dtd">
<svg version="1.1" xmlns="http://www.w3.org/2000/svg" xmlns:xlink="http://www.w3.org/1999/xlink" width="32" height="32" viewBox="0 0 32 32">
<g>
</g>
	<path d="M22.857 20v-3.429q0-0.25-0.161-0.411t-0.411-0.161h-4v-4q0-0.25-0.161-0.411t-0.411-0.161h-3.429q-0.25 0-0.411 0.161t-0.161 0.411v4h-4q-0.25 0-0.411 0.161t-0.161 0.411v3.429q0 0.25 0.161 0.411t0.411 0.161h4v4q0 0.25 0.161 0.411t0.411 0.161h3.429q0.25 0 0.411-0.161t0.161-0.411v-4h4q0.25 0 0.411-0.161t0.161-0.411zM11.429 6.857h9.143v-2.286h-9.143v2.286zM4.571 6.857v22.857h-0.571q-1.643 0-2.821-1.179t-1.179-2.821v-14.857q0-1.643 1.179-2.821t2.821-1.179h0.571zM25.714 6.857v22.857h-19.429v-22.857h2.857v-2.857q0-0.714 0.5-1.214t1.214-0.5h10.286q0.714 0 1.214 0.5t0.5 1.214v2.857h2.857zM32 10.857v14.857q0 1.643-1.179 2.821t-2.821 1.179h-0.571v-22.857h0.571q1.643 0 2.821 1.179t1.179 2.821z" fill="#000000" />
</svg>
