<?xml version="1.0" encoding="UTF-8" standalone="no"?>
<svg width="32px" height="24px" viewBox="0 0 32 24" version="1.1" xmlns="http://www.w3.org/2000/svg" xmlns:xlink="http://www.w3.org/1999/xlink" xmlns:sketch="http://www.bohemiancoding.com/sketch/ns">
    <!-- Generator: Sketch 3.3.3 (12072) - http://www.bohemiancoding.com/sketch -->
    <title>youtube-play</title>
    <desc>Created with Sketch.</desc>
    <defs></defs>
    <g id="Page-1" stroke="none" stroke-width="1" fill="none" fill-rule="evenodd" sketch:type="MSPage">
        <g id="youtube-play" sketch:type="MSLayerGroup" fill="#000000">
            <path d="M22.857,12 C22.857,11.5593333 22.6783333,11.238 22.321,11.036 L13.178,5.322 C12.8086667,5.084 12.4216667,5.072 12.017,5.286 C11.6243333,5.5 11.428,5.83333333 11.428,6.286 L11.428,17.715 C11.428,18.1676667 11.6243333,18.501 12.017,18.715 C12.2076667,18.8103333 12.3923333,18.858 12.571,18.858 C12.809,18.858 13.0113333,18.7983333 13.178,18.679 L22.321,12.965 C22.6783333,12.7623333 22.857,12.441 22.857,12.001 L22.857,12 Z M32,12 C32,13.1426667 31.994,14.0356667 31.982,14.679 C31.97,15.3223333 31.9193333,16.135 31.83,17.117 C31.7406667,18.099 31.6066667,18.977 31.428,19.751 C31.2373333,20.6203333 30.8266667,21.3523333 30.196,21.947 C29.5653333,22.5416667 28.8273333,22.887 27.982,22.983 C25.3393333,23.2803333 21.3453333,23.429 16,23.429 C10.6546667,23.429 6.66066667,23.2803333 4.018,22.983 C3.17266667,22.8876667 2.43166667,22.5423333 1.795,21.947 C1.15833333,21.3516667 0.744666667,20.6196667 0.554,19.751 C0.387333333,18.977 0.259333333,18.099 0.17,17.117 C0.0806666667,16.135 0.03,15.3223333 0.018,14.679 C0.006,14.0356667 6.73072709e-16,13.1426667 6.66133815e-16,12 C6.59194921e-16,10.8573333 0.006,9.96433333 0.018,9.321 C0.03,8.67766667 0.0806666667,7.865 0.17,6.883 C0.259333333,5.901 0.393333333,5.023 0.572,4.249 C0.762666667,3.37966667 1.17333333,2.64766667 1.804,2.053 C2.43466667,1.45833333 3.17266667,1.113 4.018,1.017 C6.66066667,0.719666667 10.6546667,0.571 16,0.571 C21.3453333,0.571 25.3393333,0.719666667 27.982,1.017 C28.8273333,1.11233333 29.5683333,1.45766667 30.205,2.053 C30.8416667,2.64833333 31.2553333,3.38033333 31.446,4.249 C31.6126667,5.023 31.7406667,5.901 31.83,6.883 C31.9193333,7.865 31.97,8.67766667 31.982,9.321 C31.994,9.96433333 32,10.8573333 32,12 L32,12 Z" id="Shape" sketch:type="MSShapeGroup"></path>
        </g>
    </g>
</svg>