<?xml version="1.0" encoding="UTF-8" standalone="no"?>
<svg width="45px" height="45px" viewBox="0 0 45 45" version="1.1" xmlns="http://www.w3.org/2000/svg" xmlns:xlink="http://www.w3.org/1999/xlink" xmlns:sketch="http://www.bohemiancoding.com/sketch/ns">
    <!-- Generator: Sketch 3.3.3 (12072) - http://www.bohemiancoding.com/sketch -->
    <title>icon</title>
    <desc>Created with Sketch.</desc>
    <defs></defs>
    <g id="Welcome" stroke="none" stroke-width="1" fill="none" fill-rule="evenodd" sketch:type="MSPage">
        <g id="Desktop-HD" sketch:type="MSArtboardGroup" transform="translate(-698.000000, -115.000000)" fill="#FFFFFF">
            <g id="icon" sketch:type="MSLayerGroup" transform="translate(698.000000, 115.000000)">
                <path d="M22.4141221,0 C10.0370611,0 0,10.034313 0,22.4194466 C0,34.8020038 10.0370611,44.8442176 22.4141221,44.8442176 C34.7939313,44.8442176 44.8388931,34.8018321 44.8388931,22.4194466 C44.8388931,10.034313 34.7939313,0 22.4141221,0 L22.4141221,0 Z M30.3525,35.0596374 L22.3335687,27.0300573 L14.4784924,34.8932061 L9.7875,30.1913931 L17.6372519,22.3363168 L9.91082061,14.6098855 L14.6045611,9.90274809 L22.3335687,17.6370802 L30.1860687,9.78458015 L34.8851336,14.483645 L27.0407061,22.336145 L35.0541412,30.3576527 L30.3525,35.0596374 L30.3525,35.0596374 Z" id="Shape" sketch:type="MSShapeGroup"></path>
            </g>
        </g>
    </g>
</svg>