<?xml version="1.0" encoding="utf-8"?>
<!-- Generated by IcoMoon.io -->
<!DOCTYPE svg PUBLIC "-//W3C//DTD SVG 1.1//EN" "http://www.w3.org/Graphics/SVG/1.1/DTD/svg11.dtd">
<svg version="1.1" xmlns="http://www.w3.org/2000/svg" xmlns:xlink="http://www.w3.org/1999/xlink" width="32" height="32" viewBox="0 0 32 32">
<g>
</g>
<path fill="#FFFFFF" d="M11.4,10.3c0-1.1,0.8-1.5,1.7-1l9.2,5.6c0.9,0.6,0.9,1.5,0,2.1l-9.2,5.6c-0.9,0.6-1.7,0.1-1.7-1V10.3z"/>
<path d="M22.9,16c0-0.4-0.2-0.8-0.5-1l-9.1-5.7c-0.4-0.2-0.8-0.3-1.2,0c-0.4,0.2-0.6,0.5-0.6,1v11.4c0,0.5,0.2,0.8,0.6,1
	c0.2,0.1,0.4,0.1,0.6,0.1s0.4-0.1,0.6-0.2l9.1-5.7C22.7,16.8,22.9,16.4,22.9,16C22.9,16,22.9,16,22.9,16z M32,16c0,1.1,0,2,0,2.7
	c0,0.6-0.1,1.5-0.2,2.4c-0.1,1-0.2,1.9-0.4,2.6c-0.2,0.9-0.6,1.6-1.2,2.2s-1.4,0.9-2.2,1c-2.6,0.3-6.6,0.4-12,0.4s-9.3,0-12-0.3
	c-0.8-0.1-1.6-0.4-2.2-1s-1.1-1.3-1.2-2.2c-0.2-0.8-0.3-1.7-0.4-2.6c-0.1-1-0.1-1.8-0.2-2.4C0,18,0,17.1,0,16s0-2,0-2.7
	c0-0.6,0.1-1.5,0.2-2.4S0.4,9,0.6,8.2C0.8,7.3,1.2,6.6,1.8,6S3.2,5.1,4,5c2.6-0.3,6.6-0.4,12-0.4S25.3,4.7,28,5
	c0.8,0.1,1.6,0.4,2.2,1s1.1,1.3,1.2,2.2c0.2,0.8,0.3,1.7,0.4,2.6s0.1,1.8,0.2,2.4C32.1,13.8,32,14.9,32,16z"/>
</svg>
