<?xml version="1.0" encoding="utf-8"?>
<!-- Generated by IcoMoon.io -->
<!DOCTYPE svg PUBLIC "-//W3C//DTD SVG 1.1//EN" "http://www.w3.org/Graphics/SVG/1.1/DTD/svg11.dtd">
<svg version="1.1" xmlns="http://www.w3.org/2000/svg" xmlns:xlink="http://www.w3.org/1999/xlink" width="25" height="32" viewBox="0 0 25 32">
<g>
</g>
	<path d="M24.875 21.696q-0.696 2.232-2.196 4.464-2.304 3.5-4.589 3.5-0.875 0-2.5-0.571-1.536-0.571-2.696-0.571-1.089 0-2.536 0.589-1.446 0.607-2.357 0.607-2.714 0-5.375-4.625-2.625-4.661-2.625-8.982 0-4.071 2.018-6.679 2-2.571 5.071-2.571 1.286 0 3.161 0.536 1.857 0.536 2.464 0.536 0.804 0 2.554-0.607 1.821-0.607 3.089-0.607 2.125 0 3.804 1.161 0.929 0.643 1.857 1.786-1.411 1.196-2.036 2.107-1.161 1.679-1.161 3.696 0 2.214 1.232 3.982t2.821 2.25zM18.161 0.75q0 1.089-0.518 2.429-0.536 1.339-1.661 2.464-0.964 0.964-1.929 1.286-0.661 0.196-1.857 0.304 0.054-2.661 1.393-4.589 1.321-1.911 4.464-2.643 0.018 0.054 0.045 0.196t0.045 0.196q0 0.071 0.009 0.179t0.009 0.179z" fill="#000000" />
</svg>
