<?xml version="1.0" encoding="utf-8"?>
<!-- Generated by IcoMoon.io -->
<!DOCTYPE svg PUBLIC "-//W3C//DTD SVG 1.1//EN" "http://www.w3.org/Graphics/SVG/1.1/DTD/svg11.dtd">
<svg version="1.1" xmlns="http://www.w3.org/2000/svg" xmlns:xlink="http://www.w3.org/1999/xlink" width="32" height="32" viewBox="0 0 32 32">
<g>
</g>
	<path d="M18.268 17.143h5.643q-0.018-0.054-0.045-0.143t-0.045-0.143l-3.786-8.857h-12.643l-3.786 8.857q-0.018 0.036-0.045 0.143t-0.045 0.143h5.643l1.696 3.429h5.714zM27.429 17.679v8.607q0 0.464-0.339 0.804t-0.804 0.339h-25.143q-0.464 0-0.804-0.339t-0.339-0.804v-8.607q0-1.107 0.446-2.196l4.25-9.857q0.179-0.446 0.652-0.75t0.938-0.304h14.857q0.464 0 0.938 0.304t0.652 0.75l4.25 9.857q0.446 1.089 0.446 2.196z" fill="#000000" />
</svg>
