<?xml version="1.0" encoding="utf-8"?>
<!-- Generated by IcoMoon.io -->
<!DOCTYPE svg PUBLIC "-//W3C//DTD SVG 1.1//EN" "http://www.w3.org/Graphics/SVG/1.1/DTD/svg11.dtd">
<svg version="1.1" xmlns="http://www.w3.org/2000/svg" xmlns:xlink="http://www.w3.org/1999/xlink" width="30" height="32" viewBox="0 0 30 32">
<g>
</g>
	<path d="M29.714 19.607q0 1.446-0.795 2.411t-2.205 0.964q-0.732 0-1.384-0.313t-1.054-0.679-1.009-0.679-1.268-0.313q-1.964 0-1.964 2.214 0 0.696 0.286 2.054t0.268 2.054v0.089q-0.393 0-0.589 0.018-0.607 0.054-1.741 0.205t-2.063 0.241-1.75 0.089q-1.089 0-1.839-0.473t-0.75-1.491q0-0.661 0.313-1.268t0.679-1.009 0.679-1.054 0.313-1.384q0-1.411-0.964-2.205t-2.411-0.795q-1.5 0-2.554 0.813t-1.054 2.277q0 0.768 0.268 1.482t0.598 1.152 0.598 0.946 0.268 0.902q0 0.804-0.821 1.589-0.661 0.625-2.089 0.625-1.696 0-4.375-0.429-0.161-0.036-0.491-0.071t-0.491-0.071l-0.232-0.036q-0.018 0-0.054-0.018-0.036 0-0.036-0.018v-18.286q0.036 0.018 0.313 0.063t0.607 0.089 0.384 0.063q2.679 0.429 4.375 0.429 1.429 0 2.089-0.625 0.821-0.786 0.821-1.589 0-0.393-0.268-0.902t-0.598-0.946-0.598-1.152-0.268-1.482q0-1.464 1.054-2.277t2.571-0.813q1.429 0 2.393 0.795t0.964 2.205q0 0.732-0.313 1.384t-0.679 1.054-0.679 1.009-0.313 1.268q0 1.018 0.75 1.491t1.839 0.473q1.143 0 3.214-0.268t2.911-0.304v0.036q-0.018 0.036-0.063 0.313t-0.089 0.607-0.063 0.384q-0.429 2.679-0.429 4.375 0 1.429 0.625 2.089 0.786 0.821 1.589 0.821 0.393 0 0.902-0.268t0.946-0.598 1.152-0.598 1.482-0.268q1.464 0 2.277 1.054t0.813 2.554z" fill="#000000" />
</svg>
