<?xml version="1.0" encoding="utf-8"?>
<!-- Generator: Adobe Illustrator 15.0.0, SVG Export Plug-In . SVG Version: 6.00 Build 0)  -->
<svg version="1.2" baseProfile="tiny" id="Layer_1" xmlns="http://www.w3.org/2000/svg" xmlns:xlink="http://www.w3.org/1999/xlink"
	 x="0px" y="0px" width="696.219px" height="354.438px" viewBox="51.812 122.281 696.219 354.438" overflow="inherit"
	 xml:space="preserve">
<rect x="52.812" y="123.281" fill="#EEEEEE" stroke="#999999" stroke-width="2" stroke-miterlimit="10" width="694.219" height="281.25"/>
<path d="M109.688,351.25c0.312-0.156,0.469-0.469,0.938-0.625s0.781-0.312,1.25-0.312h5c0.469,0,0.781,0,1.094,0.156
	s0.625,0.312,0.938,0.625c0.625,0.469,0.938,1.094,0.938,2.031v8.281c0,0.469,0,0.938-0.156,1.25s-0.312,0.781-0.469,0.938
	c-0.312,0.312-0.625,0.625-0.938,0.781c-0.469,0.156-0.938,0.312-1.406,0.312h-4.844c-0.469,0-0.938-0.156-1.406-0.312
	s-0.781-0.469-1.094-0.781c-0.469-0.625-0.781-1.25-0.781-2.031v-8.438c0-0.312,0.156-0.781,0.312-1.094
	C109.375,351.719,109.531,351.406,109.688,351.25z M112.188,352.188c-0.469,0-0.938,0.156-1.25,0.469
	c-0.156,0.156-0.312,0.312-0.312,0.469s-0.156,0.469-0.156,0.781v7.812c0,0.156,0,0.312,0.156,0.469
	c0,0.156,0.156,0.312,0.312,0.469s0.469,0.312,0.625,0.312s0.469,0.156,0.781,0.156h4.062c0.312,0,0.469,0,0.781-0.156
	c0.156,0,0.312-0.156,0.469-0.312s0.312-0.312,0.312-0.469s0-0.469,0-0.625v-7.5c0-0.312,0-0.625-0.156-0.781
	c0-0.156-0.156-0.312-0.312-0.469s-0.312-0.312-0.625-0.312c-0.156,0-0.469-0.156-0.781-0.156h-3.906V352.188z"/>
<path d="M123.594,351.25c0.312-0.156,0.469-0.469,0.938-0.625s0.781-0.312,1.25-0.312h5c0.469,0,0.781,0,1.094,0.156
	s0.625,0.312,0.938,0.625c0.625,0.469,0.938,1.094,0.938,2.031v8.281c0,0.469,0,0.938-0.156,1.25s-0.312,0.781-0.469,0.938
	c-0.312,0.312-0.625,0.625-0.938,0.781c-0.469,0.156-0.938,0.312-1.406,0.312h-4.844c-0.469,0-0.938-0.156-1.406-0.312
	s-0.781-0.469-1.094-0.781c-0.469-0.625-0.781-1.25-0.781-2.031v-8.438c0-0.312,0.156-0.781,0.312-1.094
	C123.281,351.719,123.438,351.406,123.594,351.25z M126.094,352.188c-0.469,0-0.938,0.156-1.25,0.469
	c-0.156,0.156-0.312,0.312-0.312,0.469s-0.156,0.469-0.156,0.781v7.812c0,0.156,0,0.312,0.156,0.469
	c0,0.156,0.156,0.312,0.312,0.469s0.469,0.312,0.625,0.312s0.469,0.156,0.781,0.156h4.062c0.312,0,0.469,0,0.781-0.156
	c0.156,0,0.312-0.156,0.469-0.312s0.312-0.312,0.312-0.469s0-0.469,0-0.625v-7.5c0-0.312,0-0.625-0.156-0.781
	c0-0.156-0.156-0.312-0.312-0.469s-0.312-0.312-0.625-0.312c-0.156,0-0.469-0.156-0.781-0.156h-3.906V352.188z"/>
<path d="M137.5,351.25c0.312-0.156,0.469-0.469,0.938-0.625s0.781-0.312,1.25-0.312h5c0.469,0,0.781,0,1.094,0.156
	s0.625,0.312,0.938,0.625c0.625,0.469,0.938,1.094,0.938,2.031v8.281c0,0.469,0,0.938-0.156,1.25s-0.312,0.781-0.469,0.938
	c-0.312,0.312-0.625,0.625-0.938,0.781c-0.469,0.156-0.938,0.312-1.406,0.312h-4.844c-0.469,0-0.938-0.156-1.406-0.312
	s-0.781-0.469-1.094-0.781c-0.469-0.625-0.781-1.25-0.781-2.031v-8.438c0-0.312,0.156-0.781,0.312-1.094
	C137.188,351.719,137.344,351.406,137.5,351.25z M140,352.188c-0.469,0-0.938,0.156-1.25,0.469
	c-0.156,0.156-0.312,0.312-0.312,0.469s-0.156,0.469-0.156,0.781v7.812c0,0.156,0,0.312,0.156,0.469
	c0,0.156,0.156,0.312,0.312,0.469s0.469,0.312,0.625,0.312s0.469,0.156,0.781,0.156h4.062c0.312,0,0.469,0,0.781-0.156
	c0.156,0,0.312-0.156,0.469-0.312s0.312-0.312,0.312-0.469s0-0.469,0-0.625v-7.5c0-0.312,0-0.625-0.156-0.781
	c0-0.156-0.156-0.312-0.312-0.469S145,352.5,144.688,352.5c-0.156,0-0.469-0.156-0.781-0.156H140V352.188z"/>
<path d="M151.406,351.25c0.312-0.156,0.469-0.469,0.938-0.625s0.781-0.312,1.25-0.312h5c0.469,0,0.781,0,1.094,0.156
	s0.625,0.312,0.938,0.625c0.625,0.469,0.938,1.094,0.938,2.031v8.281c0,0.469,0,0.938-0.156,1.25s-0.312,0.781-0.469,0.938
	c-0.312,0.312-0.625,0.625-0.938,0.781c-0.469,0.156-0.938,0.312-1.406,0.312h-4.844c-0.469,0-0.938-0.156-1.406-0.312
	s-0.781-0.469-1.094-0.781c-0.469-0.625-0.781-1.25-0.781-2.031v-8.438c0-0.312,0.156-0.781,0.312-1.094
	C151.094,351.719,151.25,351.406,151.406,351.25z M153.906,352.188c-0.469,0-0.938,0.156-1.25,0.469
	c-0.156,0.156-0.312,0.312-0.312,0.469s-0.156,0.469-0.156,0.781v7.812c0,0.156,0,0.312,0.156,0.469
	c0,0.156,0.156,0.312,0.312,0.469s0.469,0.312,0.625,0.312s0.469,0.156,0.781,0.156h4.062c0.312,0,0.469,0,0.781-0.156
	c0.156,0,0.312-0.156,0.469-0.312s0.312-0.312,0.312-0.469s0-0.469,0-0.625v-7.5c0-0.312,0-0.625-0.156-0.781
	c0-0.156-0.156-0.312-0.312-0.469s-0.312-0.312-0.625-0.312c-0.156,0-0.469-0.156-0.781-0.156h-3.906V352.188z"/>
<path d="M165.312,351.25c0.312-0.156,0.469-0.469,0.938-0.625s0.781-0.312,1.25-0.312h5c0.469,0,0.781,0,1.094,0.156
	s0.625,0.312,0.938,0.625c0.625,0.469,0.938,1.094,0.938,2.031v8.281c0,0.469,0,0.938-0.156,1.25s-0.312,0.781-0.469,0.938
	c-0.312,0.312-0.625,0.625-0.938,0.781c-0.469,0.156-0.938,0.312-1.406,0.312h-4.844c-0.469,0-0.938-0.156-1.406-0.312
	s-0.781-0.469-1.094-0.781c-0.469-0.625-0.781-1.25-0.781-2.031v-8.438c0-0.312,0.156-0.781,0.312-1.094
	S165.156,351.406,165.312,351.25z M167.812,352.188c-0.469,0-0.938,0.156-1.25,0.469c-0.156,0.156-0.312,0.312-0.312,0.469
	s-0.156,0.469-0.156,0.781v7.812c0,0.156,0,0.312,0.156,0.469c0,0.156,0.156,0.312,0.312,0.469s0.469,0.312,0.625,0.312
	s0.469,0.156,0.781,0.156h4.062c0.312,0,0.469,0,0.781-0.156c0.156,0,0.312-0.156,0.469-0.312s0.312-0.312,0.312-0.469
	s0-0.469,0-0.625v-7.5c0-0.312,0-0.625-0.156-0.781c0-0.156-0.156-0.312-0.312-0.469s-0.312-0.312-0.625-0.312
	c-0.156,0-0.469-0.156-0.781-0.156h-3.906V352.188z"/>
<path d="M179.219,351.25c0.312-0.156,0.469-0.469,0.938-0.625s0.781-0.312,1.25-0.312h5c0.469,0,0.781,0,1.094,0.156
	s0.625,0.312,0.938,0.625c0.625,0.469,0.938,1.094,0.938,2.031v8.281c0,0.469,0,0.938-0.156,1.25s-0.312,0.781-0.469,0.938
	c-0.312,0.312-0.625,0.625-0.938,0.781c-0.469,0.156-0.938,0.312-1.406,0.312h-4.844c-0.469,0-0.938-0.156-1.406-0.312
	s-0.781-0.469-1.094-0.781c-0.469-0.625-0.781-1.25-0.781-2.031v-8.438c0-0.312,0.156-0.781,0.312-1.094
	S178.906,351.406,179.219,351.25z M181.719,352.188c-0.469,0-0.938,0.156-1.25,0.469c-0.156,0.156-0.312,0.312-0.312,0.469
	S180,353.594,180,353.906v7.812c0,0.156,0,0.312,0.156,0.469c0,0.156,0.156,0.312,0.312,0.469s0.469,0.312,0.625,0.312
	s0.469,0.156,0.781,0.156h4.062c0.312,0,0.469,0,0.781-0.156c0.156,0,0.312-0.156,0.469-0.312s0.312-0.312,0.312-0.469
	s0-0.469,0-0.625v-7.5c0-0.312,0-0.625-0.156-0.781c0-0.156-0.156-0.312-0.312-0.469s-0.312-0.312-0.625-0.312
	c-0.156,0-0.469-0.156-0.781-0.156h-3.906V352.188z"/>
<path d="M193.125,351.25c0.312-0.156,0.469-0.469,0.938-0.625s0.781-0.312,1.25-0.312h5c0.469,0,0.781,0,1.094,0.156
	s0.625,0.312,0.938,0.625c0.625,0.469,0.938,1.094,0.938,2.031v8.281c0,0.469,0,0.938-0.156,1.25s-0.312,0.781-0.469,0.938
	c-0.312,0.312-0.625,0.625-0.938,0.781c-0.469,0.156-0.938,0.312-1.406,0.312h-5c-0.469,0-0.938-0.156-1.406-0.312
	s-0.781-0.469-1.094-0.781c-0.469-0.625-0.781-1.25-0.781-2.031v-8.438c0-0.312,0.156-0.781,0.312-1.094
	C192.656,351.719,192.812,351.406,193.125,351.25z M195.625,352.188c-0.469,0-0.938,0.156-1.25,0.469
	c-0.156,0.156-0.312,0.312-0.312,0.469s-0.156,0.469-0.156,0.781v7.812c0,0.156,0,0.312,0.156,0.469
	c0,0.156,0.156,0.312,0.312,0.469s0.469,0.312,0.625,0.312s0.469,0.156,0.781,0.156h4.062c0.312,0,0.469,0,0.781-0.156
	c0.156,0,0.312-0.156,0.469-0.312s0.312-0.312,0.312-0.469s0-0.469,0-0.625v-7.5c0-0.312,0-0.625-0.156-0.781
	c0-0.156-0.156-0.312-0.312-0.469s-0.312-0.312-0.625-0.312c-0.156,0-0.469-0.156-0.781-0.156h-3.906V352.188z"/>
<path d="M207.031,351.25c0.312-0.156,0.469-0.469,0.938-0.625s0.781-0.312,1.25-0.312h5c0.469,0,0.781,0,1.094,0.156
	s0.625,0.312,0.938,0.625c0.625,0.469,0.938,1.094,0.938,2.031v8.281c0,0.469,0,0.938-0.156,1.25s-0.312,0.781-0.469,0.938
	c-0.312,0.312-0.625,0.625-0.938,0.781c-0.469,0.156-0.938,0.312-1.406,0.312h-4.844c-0.469,0-0.938-0.156-1.406-0.312
	s-0.781-0.469-1.094-0.781c-0.469-0.625-0.781-1.25-0.781-2.031v-8.438c0-0.312,0.156-0.781,0.312-1.094
	S206.719,351.406,207.031,351.25z M209.531,352.188c-0.469,0-0.938,0.156-1.25,0.469c-0.156,0.156-0.312,0.312-0.312,0.469
	s-0.156,0.469-0.156,0.781v7.812c0,0.156,0,0.312,0.156,0.469c0,0.156,0.156,0.312,0.312,0.469s0.469,0.312,0.625,0.312
	s0.469,0.156,0.781,0.156h4.062c0.312,0,0.469,0,0.781-0.156c0.156,0,0.312-0.156,0.469-0.312s0.312-0.312,0.312-0.469
	s0-0.469,0-0.625v-7.5c0-0.312,0-0.625-0.156-0.781c0-0.156-0.156-0.312-0.312-0.469s-0.312-0.312-0.625-0.312
	c-0.156,0-0.469-0.156-0.781-0.156h-3.906V352.188z"/>
<path d="M220.781,351.25c0.312-0.156,0.469-0.469,0.938-0.625s0.781-0.312,1.25-0.312h5c0.469,0,0.781,0,1.094,0.156
	s0.625,0.312,0.938,0.625c0.625,0.469,0.938,1.094,0.938,2.031v8.281c0,0.469,0,0.938-0.156,1.25s-0.312,0.781-0.469,0.938
	c-0.312,0.312-0.625,0.625-0.938,0.781c-0.469,0.156-0.938,0.312-1.406,0.312h-4.844c-0.469,0-0.938-0.156-1.406-0.312
	s-0.781-0.469-1.094-0.781c-0.469-0.625-0.781-1.25-0.781-2.031v-8.438c0-0.312,0.156-0.781,0.312-1.094
	C220.469,351.719,220.625,351.406,220.781,351.25z M223.281,352.188c-0.469,0-0.938,0.156-1.25,0.469
	c-0.156,0.156-0.312,0.312-0.312,0.469s-0.156,0.469-0.156,0.781v7.812c0,0.156,0,0.312,0.156,0.469
	c0,0.156,0.156,0.312,0.312,0.469s0.469,0.312,0.625,0.312s0.469,0.156,0.781,0.156h4.062c0.312,0,0.469,0,0.781-0.156
	c0.156,0,0.312-0.156,0.469-0.312s0.312-0.312,0.312-0.469s0-0.469,0-0.625v-7.5c0-0.312,0-0.625-0.156-0.781
	c0-0.156-0.156-0.312-0.312-0.469s-0.312-0.312-0.625-0.312c-0.156,0-0.469-0.156-0.781-0.156h-3.906V352.188z"/>
<path d="M102.5,351.562c0,0,0.156-0.156,0.312-0.156s0.156,0,0.312,0h1.562c0.156,0,0.156,0,0.312,0s0.156,0,0.312,0.156
	s0.156,0.312,0.156,0.625v1.719c0,0.156,0,0.312,0,0.312c0,0.156,0,0.156-0.156,0.312c0,0.156-0.156,0.156-0.156,0.156
	c-0.156,0-0.312,0-0.469,0h-1.719c-0.156,0-0.156,0-0.156,0c-0.156,0-0.312,0-0.469-0.156s-0.156-0.156-0.156-0.312
	c0,0,0-0.156,0-0.312v-1.875c0-0.156,0-0.312,0-0.312C102.344,351.719,102.344,351.719,102.5,351.562z"/>
<path d="M102.5,360.938c0,0,0.156-0.156,0.312-0.156s0.156,0,0.312,0h1.562c0.156,0,0.156,0,0.312,0s0.156,0,0.312,0.156
	s0.156,0.312,0.156,0.625v1.719c0,0.156,0,0.312,0,0.312c0,0.156,0,0.156-0.156,0.312c0,0.156-0.156,0.156-0.156,0.156
	c-0.156,0-0.312,0-0.469,0h-1.719c-0.156,0-0.156,0-0.156,0c-0.156,0-0.312,0-0.469-0.156s-0.156-0.156-0.156-0.312
	c0,0,0-0.156,0-0.312v-1.875c0-0.156,0-0.312,0-0.312C102.344,361.094,102.344,361.094,102.5,360.938z"/>
<rect x="97.031" y="353.125" width="2.031" height="9.375"/>
<path d="M275.938,351.562c0,0,0.156-0.156,0.312-0.156s0.156,0,0.312,0h1.719c0.156,0,0.156,0,0.312,0s0.156,0,0.312,0.156
	s0.156,0.312,0.156,0.625v1.719c0,0.156,0,0.312,0,0.312c0,0.156,0,0.156-0.156,0.312c0,0.156-0.156,0.156-0.156,0.156
	c-0.156,0-0.312,0-0.469,0h-1.719c-0.156,0-0.156,0-0.156,0c-0.156,0-0.312,0-0.469-0.156s-0.156-0.156-0.156-0.312
	c0,0,0-0.156,0-0.312v-1.875c0-0.156,0-0.312,0-0.312S275.781,351.719,275.938,351.562z"/>
<path d="M275.938,360.938c0,0,0.156-0.156,0.312-0.156s0.156,0,0.312,0h1.719c0.156,0,0.156,0,0.312,0s0.156,0,0.312,0.156
	s0.156,0.312,0.156,0.625v1.719c0,0.156,0,0.312,0,0.312c0,0.156,0,0.156-0.156,0.312c0,0.156-0.156,0.156-0.156,0.156
	c-0.156,0-0.312,0-0.469,0h-1.719c-0.156,0-0.156,0-0.156,0c-0.156,0-0.312,0-0.469-0.156s-0.156-0.156-0.156-0.312
	c0,0,0-0.156,0-0.312v-1.875c0-0.156,0-0.312,0-0.312S275.781,361.094,275.938,360.938z"/>
<rect x="270.469" y="353.125" width="2.031" height="9.375"/>
<path d="M284.688,351.094c0.312-0.156,0.469-0.469,0.938-0.625s0.781-0.312,1.25-0.312h5c0.469,0,0.781,0,1.094,0.156
	s0.625,0.312,0.938,0.625c0.625,0.469,0.938,1.094,0.938,2.031v8.281c0,0.469,0,0.938-0.156,1.25s-0.312,0.781-0.469,0.938
	c-0.312,0.312-0.625,0.625-0.938,0.781c-0.469,0.156-0.938,0.312-1.406,0.312h-4.844c-0.469,0-0.938-0.156-1.406-0.312
	s-0.781-0.469-1.094-0.781c-0.469-0.625-0.781-1.25-0.781-2.031v-8.594c0-0.312,0.156-0.781,0.312-1.094
	C284.375,351.562,284.531,351.25,284.688,351.094z M287.188,352.031c-0.469,0-0.938,0.156-1.25,0.469
	c-0.156,0.156-0.312,0.312-0.312,0.469s-0.156,0.469-0.156,0.781v7.812c0,0.156,0,0.312,0.156,0.469
	c0,0.156,0.156,0.312,0.312,0.469s0.469,0.312,0.625,0.312s0.469,0.156,0.781,0.156h4.062c0.312,0,0.469,0,0.781-0.156
	c0.156,0,0.312-0.156,0.469-0.312s0.312-0.312,0.312-0.469s0-0.469,0-0.625v-7.5c0-0.312,0-0.625-0.156-0.781
	c0-0.156-0.156-0.312-0.312-0.469s-0.312-0.312-0.625-0.312c-0.156,0-0.469-0.156-0.781-0.156h-3.906V352.031z"/>
<path d="M300.625,351.094c0.312-0.156,0.469-0.469,0.938-0.625s0.781-0.312,1.25-0.312h5c0.469,0,0.781,0,1.094,0.156
	s0.625,0.312,0.938,0.625c0.625,0.469,0.938,1.094,0.938,2.031v8.281c0,0.469,0,0.938-0.156,1.25s-0.312,0.781-0.469,0.938
	c-0.312,0.312-0.625,0.625-0.938,0.781c-0.469,0.156-0.938,0.312-1.406,0.312h-4.844c-0.469,0-0.938-0.156-1.406-0.312
	s-0.781-0.469-1.094-0.781c-0.469-0.625-0.781-1.25-0.781-2.031v-8.594c0-0.312,0.156-0.781,0.312-1.094
	C300.156,351.562,300.469,351.25,300.625,351.094z M303.125,352.031c-0.469,0-0.938,0.156-1.25,0.469
	c-0.156,0.156-0.312,0.312-0.312,0.469s-0.156,0.469-0.156,0.781v7.812c0,0.156,0,0.312,0.156,0.469
	c0,0.156,0.156,0.312,0.312,0.469s0.469,0.312,0.625,0.312s0.469,0.156,0.781,0.156h4.062c0.312,0,0.469,0,0.781-0.156
	c0.156,0,0.312-0.156,0.469-0.312s0.312-0.312,0.312-0.469s0-0.469,0-0.625v-7.5c0-0.312,0-0.625-0.156-0.781
	c0-0.156-0.156-0.312-0.312-0.469s-0.312-0.312-0.625-0.312c-0.156,0-0.469-0.156-0.781-0.156h-3.906V352.031z"/>
<path d="M316.562,351.094c0.312-0.156,0.469-0.469,0.938-0.625s0.781-0.312,1.25-0.312h5c0.469,0,0.781,0,1.094,0.156
	s0.625,0.312,0.938,0.625c0.625,0.469,0.938,1.094,0.938,2.031v8.281c0,0.469,0,0.938-0.156,1.25s-0.312,0.781-0.469,0.938
	c-0.312,0.312-0.625,0.625-0.938,0.781c-0.469,0.156-0.938,0.312-1.406,0.312h-5c-0.469,0-0.938-0.156-1.406-0.312
	s-0.781-0.469-1.094-0.781c-0.469-0.625-0.781-1.25-0.781-2.031v-8.594c0-0.312,0.156-0.781,0.312-1.094
	C316.094,351.562,316.25,351.25,316.562,351.094z M319.062,352.031c-0.469,0-0.938,0.156-1.25,0.469
	c-0.156,0.156-0.312,0.312-0.312,0.469s-0.156,0.469-0.156,0.781v7.812c0,0.156,0,0.312,0.156,0.469
	c0,0.156,0.156,0.312,0.312,0.469s0.469,0.312,0.625,0.312s0.469,0.156,0.781,0.156h4.062c0.312,0,0.469,0,0.781-0.156
	c0.156,0,0.312-0.156,0.469-0.312s0.312-0.312,0.312-0.469s0-0.469,0-0.625v-7.5c0-0.312,0-0.625-0.156-0.781
	c0-0.156-0.156-0.312-0.312-0.469s-0.312-0.312-0.625-0.312c-0.156,0-0.469-0.156-0.781-0.156h-3.906V352.031z"/>
<path d="M331.875,350.312c0.156-0.156,0.312-0.156,0.625-0.156h1.25c0.156,0,0.312,0,0.469,0s0.156,0,0.312,0.156
	s0.312,0.469,0.312,0.938v6.094c0,0.312,0,0.469,0.156,0.469c0.156,0.156,0.312,0.156,0.625,0.156h1.25c0.312,0,0.469,0,0.625,0.156
	s0.312,0.469,0.312,0.781v4.375c0,0.312,0,0.469,0,0.625s-0.156,0.312-0.156,0.312c-0.156,0.156-0.312,0.156-0.312,0.156
	c-0.156,0-0.312,0-0.469,0h-4.062c-0.156,0-0.156,0-0.312,0s-0.312,0-0.312,0c-0.156,0-0.156,0-0.312-0.156
	s-0.156-0.156-0.312-0.312c0-0.156,0-0.312,0-0.469v-4.531c0-0.312,0.156-0.469,0.312-0.781c0.156-0.156,0.312-0.156,0.625-0.312
	c0.312,0,0.469-0.156,0.625-0.312c0-0.156,0.156-0.156,0.156-0.312s0-0.312,0-0.625v-3.281c0-0.312,0-0.469-0.156-0.625
	c0-0.156-0.312-0.312-0.625-0.312c-0.312-0.156-0.469-0.156-0.625-0.312s-0.156-0.312-0.156-0.625v-0.625
	C331.719,350.625,331.719,350.469,331.875,350.312z"/>
<path d="M342.969,351.094c0-0.312,0.156-0.469,0.312-0.625s0.469-0.156,0.781-0.156h4.219c0.156,0,0.312,0,0.469,0
	s0.156,0,0.312,0.156s0.156,0.156,0.156,0.312s0,0.312,0,0.625v5.938c0,0.156,0,0.312,0,0.469s-0.156,0.312-0.156,0.312
	c-0.156,0.156-0.312,0.156-0.469,0.312c-0.156,0-0.312,0.156-0.625,0.156h-2.344c-0.312,0-0.469,0-0.469,0s-0.156,0.156-0.312,0.156
	c-0.156,0.156-0.312,0.312-0.312,0.625v2.969c0,0.156,0,0.312,0,0.312s0,0,0.156,0.156s0.156,0.156,0.312,0.156s0.312,0,0.469,0
	h2.812c0.312,0,0.469,0.156,0.625,0.312s0.312,0.312,0.312,0.625c0,0.156-0.156,0.469-0.312,0.625s-0.312,0.312-0.625,0.312h-4.219
	c-0.156,0-0.156,0-0.312,0s-0.312,0-0.469,0s-0.156,0-0.312-0.156s-0.156-0.156-0.156-0.312s0-0.312,0-0.469v-5.781
	c0-0.156,0-0.312,0-0.469s0.156-0.312,0.156-0.312c0.156-0.156,0.469-0.312,0.938-0.312h2.812c0.156,0,0.156,0,0.312,0
	s0.156-0.156,0.312-0.156c0-0.156,0.156-0.312,0.156-0.469v-3.281c0-0.156,0-0.312-0.156-0.469c0-0.156-0.156-0.156-0.312-0.156
	s-0.156,0-0.312,0h-2.812c-0.312,0-0.469-0.156-0.781-0.312C342.969,351.562,342.969,351.25,342.969,351.094z"/>
<path d="M354.219,350.938c0-0.312,0.156-0.469,0.312-0.625s0.469-0.156,0.625-0.156h4.062c0.312,0,0.469,0,0.625,0
	s0.312,0.156,0.312,0.156c0.156,0.156,0.156,0.312,0.156,0.469s0,0.312,0,0.625v5c0,0.156,0,0.156,0,0.312s0,0.312,0.156,0.312
	c0.156,0.156,0.312,0.156,0.781,0.312c0.156,0,0.312,0.156,0.469,0.312s0.156,0.312,0.156,0.625v4.844c0,0.312,0,0.469,0,0.625
	s-0.156,0.312-0.156,0.469c-0.156,0.156-0.312,0.156-0.469,0.312c-0.156,0-0.312,0-0.625,0h-5.938c-0.312,0-0.469,0-0.625-0.156
	s-0.312-0.312-0.312-0.625s0.156-0.469,0.312-0.625s0.312-0.156,0.625-0.156h2.656c0.156,0,0.312,0,0.469,0s0.156-0.156,0.312-0.156
	c0.156-0.156,0.156-0.156,0.156-0.312s0-0.312,0-0.469v-2.812c0-0.156,0-0.156,0-0.312s-0.156-0.156-0.156-0.312
	c-0.156-0.156-0.312-0.156-0.625-0.156h-2.812c-0.312,0-0.469-0.156-0.781-0.312c-0.156-0.156-0.312-0.312-0.312-0.625
	s0.156-0.469,0.312-0.625s0.469-0.312,0.781-0.312h2.5c0.156,0,0.312,0,0.469,0s0.312-0.156,0.312-0.156
	c0.156-0.156,0.156-0.156,0.156-0.312s0-0.156,0-0.312v-2.969c0-0.156,0-0.312,0-0.312c0-0.156-0.156-0.156-0.156-0.312
	c-0.156-0.156-0.156-0.156-0.312-0.156s-0.312,0-0.469,0h-2.656c-0.312,0-0.469-0.156-0.625-0.312
	C354.375,351.406,354.219,351.25,354.219,350.938z"/>
<path d="M367.5,350.312c0.156-0.156,0.156-0.156,0.312-0.156s0.312,0,0.469,0h1.406c0.156,0,0.312,0,0.312,0
	c0.156,0,0.156,0,0.312,0.156s0.312,0.156,0.312,0.312s0,0.312,0,0.625v7.656c0,0.312,0,0.469,0.156,0.625s0.312,0.156,0.469,0.156
	h1.562c0.156,0,0.312,0,0.469-0.156c0,0,0.156-0.156,0.156-0.312s0-0.156,0-0.312s0-0.156,0-0.312s0.156-0.156,0.156-0.312
	c0.156-0.156,0.156-0.156,0.312-0.312c0.156,0,0.312,0,0.469,0h1.25c0.156,0,0.312,0,0.625,0.156s0.469,0.469,0.469,0.938v4.375
	c0,0.156,0,0.312,0,0.469s0,0.156-0.156,0.312s-0.156,0.156-0.312,0.312c-0.156,0-0.312,0-0.469,0h-1.406c-0.156,0-0.312,0-0.469,0
	s-0.156-0.156-0.312-0.156c-0.156-0.156-0.156-0.156-0.156-0.312s0-0.312,0-0.469V362.5c0-0.156,0-0.312,0-0.469
	s-0.156-0.156-0.156-0.312c-0.156,0-0.156-0.156-0.312-0.156s-0.156,0-0.312,0h-4.219c-0.156,0-0.156,0-0.312,0s-0.312,0-0.469,0
	s-0.156-0.156-0.312-0.156l-0.156-0.156c0-0.156,0-0.156,0-0.312s0-0.312,0-0.469v-9.062c0-0.156,0-0.312,0-0.469
	C367.188,350.625,367.344,350.469,367.5,350.312z"/>
<path d="M381.875,350.469c0.156-0.156,0.312-0.156,0.469-0.156s0.312,0,0.625,0h5.469c0.312,0,0.469,0,0.625,0.156
	s0.312,0.312,0.312,0.625s-0.156,0.469-0.312,0.625s-0.312,0.312-0.625,0.312h-3.906c-0.156,0-0.312,0-0.312,0
	c-0.156,0-0.312,0-0.312,0c-0.156,0-0.156,0-0.312,0.156s-0.312,0.469-0.312,0.781v2.812c0,0.156,0,0.312,0,0.469
	s0,0.312,0.156,0.312c0.156,0.156,0.156,0.156,0.312,0.156s0.312,0,0.469,0h3.906c0.312,0,0.625,0.156,0.781,0.312
	s0.312,0.469,0.312,0.781v5.938c0,0.156,0,0.312,0,0.312c0,0.156,0,0.156-0.156,0.312s-0.156,0.156-0.312,0.156s-0.312,0-0.625,0
	h-5.938c-0.312,0-0.469-0.156-0.625-0.312s-0.312-0.312-0.312-0.625s0.156-0.469,0.312-0.625s0.469-0.156,0.781-0.156h3.125
	c0.156,0,0.312,0,0.469,0s0.312,0,0.312-0.156c0.156-0.156,0.156-0.156,0.156-0.312s0-0.312,0-0.469v-2.812c0-0.156,0-0.312,0-0.312
	c0-0.156,0-0.156-0.156-0.312c-0.156,0-0.156-0.156-0.312-0.156s-0.156,0-0.312,0s-0.156,0-0.312,0H382.5c-0.312,0-0.469,0-0.625,0
	s-0.312-0.156-0.312-0.312s-0.156-0.312-0.156-0.469s0-0.312,0-0.625v-5.781C381.406,350.938,381.562,350.625,381.875,350.469z"/>
<path d="M394.688,350.469c0.156-0.156,0.469-0.312,0.781-0.312h4.062c0.469,0,0.625,0,0.938,0.156s0.469,0.469,0.469,0.938v1.562
	c0,0.312,0,0.625-0.156,0.938s-0.312,0.312-0.625,0.312s-0.469-0.156-0.625-0.312s-0.312-0.312-0.312-0.625v-0.469
	c0-0.156,0-0.312-0.156-0.469c0-0.156-0.156-0.156-0.156-0.312c-0.156,0-0.312,0-0.469,0h-1.562c-0.156,0-0.469,0-0.469,0.156
	c-0.156,0.156-0.156,0.312-0.156,0.625v4.375c0,0.156,0,0.312,0,0.312c0,0.156,0,0.156,0.156,0.312s0.156,0.156,0.312,0.156
	s0.312,0,0.625,0h5.469c0.156,0,0.312,0,0.469,0s0.312,0.156,0.312,0.312c0.156,0.156,0.156,0.469,0.156,0.781v4.375
	c0,0.156,0,0.312,0,0.469s-0.156,0.156-0.156,0.312c-0.156,0.156-0.156,0.156-0.312,0.156s-0.312,0-0.469,0h-7.188
	c-0.156,0-0.156,0-0.312,0c-0.312,0-0.469,0-0.625-0.156s-0.312-0.156-0.312-0.312s0-0.312,0-0.469V351.25c0-0.312,0-0.469,0-0.625
	C394.375,350.625,394.531,350.625,394.688,350.469z M401.719,359.844c0,0-0.156-0.156-0.312-0.156s-0.312,0-0.469,0
	s-0.312,0-0.312,0h-3.594c-0.156,0-0.156,0-0.312,0s-0.312,0-0.312,0.156c-0.156,0.156-0.156,0.156-0.312,0.312
	c0,0.156,0,0.312,0,0.469v1.25c0,0.156,0,0.312,0,0.469c0,0,0,0.156,0.156,0.312c0,0.156,0.156,0.156,0.312,0.156s0.312,0,0.469,0
	h3.906c0.156,0,0.469,0,0.469,0c0.156,0,0.156-0.156,0.312-0.312s0.156-0.156,0.156-0.312s0-0.312,0-0.469v-1.25
	c0-0.156,0-0.312,0-0.469C401.875,360.156,401.875,360,401.719,359.844z"/>
<path d="M408.906,350.469c0-0.156,0.156-0.156,0.312-0.156s0.312,0,0.625,0h5.625c0.312,0,0.469,0,0.625,0s0.156,0.156,0.312,0.156
	s0.156,0.156,0.156,0.312s0,0.312,0,0.469v4.531c0,0.156,0,0.312,0,0.469s0,0.156-0.156,0.312l-0.156,0.156c0,0,0,0-0.156,0
	l-2.344,1.094c0,0-0.156,0.156-0.312,0.156c0,0-0.156,0.156-0.156,0.312v5.312c0,0.156,0,0.469-0.156,0.625
	s-0.312,0.312-0.625,0.312s-0.469-0.156-0.625-0.312s-0.312-0.312-0.312-0.625v-5.938c0-0.156,0-0.312,0-0.469s0-0.156,0.156-0.312
	l0.156-0.156c0.156,0,0.156-0.156,0.312-0.156l2.188-0.938l0.312-0.156c0,0,0-0.156,0.156-0.312c0-0.156,0-0.312,0-0.469v-1.875
	c0-0.156,0-0.312,0-0.312c0-0.156,0-0.156-0.156-0.312s-0.156-0.156-0.312-0.156s-0.312,0-0.469,0h-2.656c-0.156,0-0.156,0-0.312,0
	s-0.156,0-0.312,0.156s-0.312,0.312-0.312,0.625v1.562c0,0.156-0.156,0.469-0.312,0.625s-0.312,0.312-0.625,0.312
	s-0.469-0.156-0.625-0.312s-0.312-0.312-0.312-0.625v-3.125C408.75,350.781,408.75,350.625,408.906,350.469z"/>
<path d="M423.75,350.312c0.156,0,0.156-0.156,0.312-0.156s0.312,0,0.312,0h5.469c0.312,0,0.469,0,0.625,0s0.312,0.156,0.312,0.156
	c0.312,0.156,0.312,0.469,0.312,0.938v5c0,0.156,0,0.312,0.156,0.469c0,0.156,0.156,0.312,0.469,0.312
	c0.469,0.156,0.781,0.312,0.938,0.469c0,0.156,0.156,0.156,0.156,0.312s0,0.312,0,0.469v5c0,0.312,0,0.625-0.156,0.781
	s-0.312,0.312-0.469,0.312s-0.312,0-0.625,0h-8.281c-0.312,0-0.469,0-0.625,0s-0.312-0.156-0.469-0.312c0,0-0.156-0.156-0.156-0.312
	s0-0.312,0-0.469v-5.312c0-0.312,0-0.469,0.156-0.625s0.312-0.156,0.469-0.312c0.312,0,0.469-0.156,0.625-0.312
	c0.156,0,0.156-0.156,0.156-0.312s0-0.312,0-0.469s0-0.312,0-0.312v-4.688C423.281,350.781,423.438,350.469,423.75,350.312z
	 M429.219,358.438c0-0.156-0.156-0.156-0.312-0.156s-0.312,0-0.469,0h-2.656c-0.156,0-0.156,0-0.156,0c-0.312,0-0.469,0-0.469,0.156
	c-0.156,0.156-0.312,0.312-0.312,0.469v2.969c0,0.156,0,0.312,0,0.312c0,0.156,0,0.156,0.156,0.312s0.156,0.156,0.312,0.156
	s0.312,0,0.469,0h2.656c0.312,0,0.469,0,0.469,0c0.156,0,0.156-0.156,0.312-0.156c0.156-0.156,0.156-0.312,0.156-0.625v-3.125
	C429.375,358.75,429.375,358.594,429.219,358.438z M429.219,352.031c0,0-0.156-0.156-0.312-0.156s-0.312,0-0.312,0h-2.5
	c-0.156,0-0.312,0-0.312,0c-0.156,0-0.312,0-0.312,0.156c-0.156,0-0.156,0.156-0.156,0.156c0,0.156,0,0.156,0,0.312s0,0.156,0,0.312
	v2.812c0,0.312,0,0.469,0,0.469c0.156,0.156,0.312,0.312,0.625,0.312h3.125c0.156,0,0.312,0,0.469-0.156s0.156-0.156,0.156-0.312
	s0-0.312,0-0.312v-2.812c0-0.156,0-0.312,0-0.469C429.375,352.188,429.375,352.188,429.219,352.031z"/>
<path d="M437.969,350.469c0.156-0.156,0.312-0.312,0.469-0.312s0.312,0,0.625,0h7.031c0.156,0,0.312,0,0.469,0
	s0.312,0.156,0.312,0.312c0.156,0.156,0.312,0.469,0.312,0.938v12.188c0,0.156,0,0.312,0,0.312c0,0.156-0.156,0.312-0.156,0.312
	c-0.156,0.156-0.156,0.156-0.312,0.156s-0.312,0-0.469,0h-1.562c-0.156,0-0.312,0-0.469,0s-0.156-0.156-0.312-0.312
	c0,0,0-0.156,0-0.312s0-0.156,0-0.312v-4.531c0-0.156,0-0.312,0-0.312c0-0.156-0.156-0.156-0.156-0.312
	c-0.156,0-0.156-0.156-0.312-0.156s-0.312,0-0.469,0h-4.062c-0.469,0-0.781-0.156-0.938-0.312s-0.156-0.312-0.156-0.625v-5.781
	c0-0.156,0-0.312,0-0.469S437.812,350.625,437.969,350.469z M445.156,352.188c-0.156-0.156-0.156-0.156-0.312-0.156
	s-0.312,0-0.312,0c-0.156,0-0.156,0-0.312,0h-3.906c-0.156,0-0.312,0-0.312,0c-0.156,0-0.312,0-0.312,0.156
	c-0.156,0.156-0.156,0.156-0.156,0.312s0,0.312,0,0.469v2.656c0,0.156,0,0.312,0,0.312c0,0.156,0,0.156,0.156,0.312
	s0.312,0.312,0.625,0.312h4.219c0.312,0,0.469-0.156,0.625-0.312s0.312-0.312,0.312-0.781v-2.656
	C445.312,352.5,445.312,352.344,445.156,352.188z"/>
<path d="M491.562,351.562c0,0,0.156-0.156,0.312-0.156s0.156,0,0.312,0h1.719c0.156,0,0.156,0,0.312,0s0.156,0,0.312,0.156
	s0.156,0.312,0.156,0.625v1.719c0,0.156,0,0.312,0,0.312c0,0.156,0,0.156-0.156,0.312c0,0.156-0.156,0.156-0.156,0.156
	c-0.156,0-0.312,0-0.469,0h-1.719c-0.156,0-0.156,0-0.156,0c-0.156,0-0.312,0-0.469-0.156s-0.156-0.156-0.156-0.312
	c0,0,0-0.156,0-0.312v-1.875c0-0.156,0-0.312,0-0.312S491.406,351.719,491.562,351.562z"/>
<path d="M491.562,360.938c0,0,0.156-0.156,0.312-0.156s0.156,0,0.312,0h1.719c0.156,0,0.156,0,0.312,0s0.156,0,0.312,0.156
	s0.156,0.312,0.156,0.625v1.719c0,0.156,0,0.312,0,0.312c0,0.156,0,0.156-0.156,0.312c0,0.156-0.156,0.156-0.156,0.156
	c-0.156,0-0.312,0-0.469,0h-1.719c-0.156,0-0.156,0-0.156,0c-0.156,0-0.312,0-0.469-0.156s-0.156-0.156-0.156-0.312
	c0,0,0-0.156,0-0.312v-1.875c0-0.156,0-0.312,0-0.312S491.406,361.094,491.562,360.938z"/>
<rect x="486.094" y="353.125" width="2.031" height="9.375"/>
<path d="M502.969,350.625c0.156-0.156,0.312-0.156,0.625-0.156h1.25c0.156,0,0.312,0,0.469,0s0.156,0,0.312,0.156
	s0.312,0.469,0.312,0.938v6.094c0,0.312,0,0.469,0.156,0.469c0.156,0.156,0.312,0.156,0.625,0.156h1.25c0.312,0,0.469,0,0.625,0.156
	s0.312,0.469,0.312,0.781v4.375c0,0.312,0,0.469,0,0.625s-0.156,0.312-0.156,0.312c-0.156,0.156-0.312,0.156-0.312,0.156
	c-0.156,0-0.312,0-0.469,0h-3.906c-0.156,0-0.156,0-0.312,0s-0.312,0-0.312,0c-0.156,0-0.156,0-0.312-0.156
	s-0.156-0.156-0.312-0.312c0-0.156,0-0.312,0-0.469v-4.531c0-0.312,0.156-0.469,0.312-0.781c0.156-0.156,0.312-0.156,0.625-0.312
	c0.312,0,0.469-0.156,0.625-0.312c0-0.156,0.156-0.156,0.156-0.312s0-0.312,0-0.625v-3.281c0-0.312,0-0.469-0.156-0.625
	c0-0.156-0.312-0.312-0.625-0.312c-0.312-0.156-0.469-0.156-0.625-0.312s-0.156-0.312-0.156-0.625v-0.625
	C502.656,350.938,502.812,350.781,502.969,350.625z"/>
<path d="M513.906,351.25c0-0.312,0.156-0.469,0.312-0.625s0.469-0.156,0.781-0.156h4.219c0.156,0,0.312,0,0.469,0
	s0.156,0,0.312,0.156s0.156,0.156,0.156,0.312s0,0.312,0,0.625v5.938c0,0.156,0,0.312,0,0.469S520,358.281,520,358.281
	c-0.156,0.156-0.312,0.156-0.469,0.312c-0.156,0-0.312,0.156-0.625,0.156h-2.344c-0.312,0-0.469,0-0.469,0s-0.156,0.156-0.312,0.156
	c-0.156,0.156-0.312,0.312-0.312,0.625v2.969c0,0.156,0,0.312,0,0.312s0,0,0.156,0.156s0.156,0.156,0.312,0.156s0.312,0,0.469,0
	h2.812c0.312,0,0.469,0.156,0.625,0.312s0.312,0.312,0.312,0.625c0,0.156-0.156,0.469-0.312,0.625S519.531,365,519.219,365H515
	c-0.156,0-0.156,0-0.312,0s-0.312,0-0.469,0s-0.156,0-0.312-0.156s-0.156-0.156-0.156-0.312s0-0.312,0-0.469v-5.781
	c0-0.156,0-0.312,0-0.469s0.156-0.312,0.156-0.312c0.156-0.156,0.469-0.312,0.938-0.312h2.812c0.156,0,0.156,0,0.312,0
	s0.156-0.156,0.312-0.156c0-0.156,0.156-0.312,0.156-0.469v-3.281c0-0.156,0-0.312-0.156-0.469c0-0.156-0.156-0.156-0.312-0.156
	s-0.156,0-0.312,0h-2.812c-0.312,0-0.469-0.156-0.781-0.312C514.062,351.875,513.906,351.562,513.906,351.25z"/>
<path d="M525.312,351.25c0-0.312,0.156-0.469,0.312-0.625s0.469-0.156,0.625-0.156h4.062c0.312,0,0.469,0,0.625,0
	s0.312,0.156,0.312,0.156c0.156,0.156,0.156,0.312,0.156,0.469s0,0.312,0,0.625v5c0,0.156,0,0.156,0,0.312s0,0.312,0.156,0.312
	c0.156,0.156,0.312,0.156,0.781,0.312c0.156,0,0.312,0.156,0.469,0.312s0.156,0.312,0.156,0.625v4.844c0,0.312,0,0.469,0,0.625
	s-0.156,0.312-0.156,0.469c-0.156,0.156-0.312,0.156-0.469,0.312c-0.156,0-0.312,0-0.625,0h-5.938c-0.312,0-0.469,0-0.625-0.156
	s-0.312-0.312-0.312-0.625s0.156-0.469,0.312-0.625s0.312-0.156,0.625-0.156h2.656c0.156,0,0.312,0,0.469,0s0.156-0.156,0.312-0.156
	c0.156-0.156,0.156-0.156,0.156-0.312s0-0.312,0-0.469v-2.969c0-0.156,0-0.156,0-0.312s-0.156-0.156-0.156-0.312
	c-0.156-0.156-0.312-0.156-0.625-0.156h-2.812c-0.312,0-0.469-0.156-0.781-0.312c-0.156-0.156-0.312-0.312-0.312-0.625
	s0.156-0.469,0.312-0.625s0.469-0.312,0.781-0.312h2.5c0.156,0,0.312,0,0.469,0s0.312-0.156,0.312-0.156
	c0.156-0.156,0.156-0.156,0.156-0.312s0-0.156,0-0.312v-2.969c0-0.156,0-0.312,0-0.312c0-0.156-0.156-0.156-0.156-0.312
	c-0.156-0.156-0.156-0.156-0.312-0.156s-0.312,0-0.469,0h-2.656c-0.312,0-0.469-0.156-0.625-0.312
	C525.312,351.719,525.312,351.562,525.312,351.25z"/>
<line fill="none" stroke="#333333" stroke-miterlimit="10" x1="79.375" y1="301.406" x2="637.188" y2="301.406"/>
<line fill="none" stroke="#333333" stroke-miterlimit="10" x1="183.75" y1="265.469" x2="589.844" y2="265.469"/>
<path d="M80.781,235.469h5c0.938,0,1.719,0.312,2.344,0.781s0.938,1.406,0.938,2.344s-0.312,1.562-0.781,2.344
	s-1.406,0.938-2.5,0.938h-3.438v4.688h-1.562V235.469z M86.719,237.031c-0.312-0.156-0.781-0.312-1.406-0.312h-2.969v3.906h2.969
	c0.625,0,1.25-0.156,1.719-0.469s0.625-0.781,0.625-1.562S87.344,237.344,86.719,237.031z"/>
<path d="M93.906,235.469h1.719l4.062,11.25h-1.719l-1.094-3.281H92.5l-1.25,3.281h-1.562L93.906,235.469z M96.406,242.031l-1.719-5
	l-1.719,5H96.406z"/>
<path d="M99.688,235.469h1.875l3.281,5.312l3.281-5.312h1.719l-4.219,6.719v4.531h-1.562v-4.531L99.688,235.469z"/>
<path d="M124.375,235.469v1.406h-3.75v9.844h-1.562v-9.844h-3.75v-1.406H124.375z"/>
<path d="M135.469,237.031c0.781,0.938,1.094,2.188,1.094,3.75c0,1.719-0.469,3.125-1.25,4.219c-0.938,1.25-2.344,1.875-4.219,1.875
	c-1.719,0-3.125-0.625-4.062-1.719s-1.25-2.5-1.25-4.219c0-1.562,0.312-2.812,1.094-3.906c0.938-1.406,2.344-2.031,4.219-2.031
	C132.969,235.156,134.531,235.781,135.469,237.031z M134.062,244.219c0.625-0.938,0.938-2.031,0.938-3.281s-0.312-2.344-1.094-3.125
	c-0.625-0.781-1.562-1.25-2.812-1.25c-1.094,0-2.031,0.469-2.812,1.25s-1.094,2.031-1.094,3.594c0,1.25,0.312,2.344,0.938,3.125
	s1.719,1.25,3.125,1.25C132.5,245.625,133.438,245.156,134.062,244.219z"/>
<path d="M152.031,235.469v1.406h-3.75v9.844h-1.562v-9.844h-3.75v-1.406H152.031z"/>
<path d="M154.062,235.469h1.562v4.688h5.781v-4.688h1.562v11.25h-1.562v-5.312h-5.781v5.312h-1.562V235.469z"/>
<path d="M166.25,235.469h8.125v1.406h-6.719v3.438h6.094v1.25h-6.094v3.75h6.719v1.406h-8.281v-11.25H166.25z"/>
<path d="M89.844,254.219c0.781,0.938,1.094,2.188,1.094,3.75c0,1.719-0.469,3.125-1.25,4.219c-0.938,1.25-2.344,1.875-4.219,1.875
	c-1.719,0-3.125-0.625-4.062-1.719s-1.25-2.5-1.25-4.219c0-1.562,0.312-2.812,1.094-3.906c0.938-1.406,2.344-2.031,4.219-2.031
	C87.5,252.344,88.906,252.969,89.844,254.219z M88.594,261.406c0.625-0.938,0.938-2.031,0.938-3.281s-0.312-2.344-1.094-3.125
	c-0.625-0.781-1.562-1.25-2.812-1.25c-1.094,0-2.031,0.469-2.812,1.25s-1.094,2.031-1.094,3.594c0,1.25,0.312,2.344,0.938,3.125
	s1.719,1.25,3.125,1.25C87.031,262.812,87.969,262.344,88.594,261.406z"/>
<path d="M93.75,252.656h5.156c0.781,0,1.562,0.156,2.031,0.312c1.094,0.469,1.562,1.406,1.562,2.656c0,0.625-0.156,1.25-0.469,1.719
	s-0.625,0.781-1.094,1.094c0.469,0.156,0.781,0.469,0.938,0.625s0.312,0.781,0.312,1.406v1.562c0,0.469,0,0.781,0.156,0.938
	c0.156,0.312,0.312,0.625,0.469,0.625v0.312h-1.875c0-0.156-0.156-0.156-0.156-0.312s0-0.469,0-0.938l-0.156-1.875
	c0-0.781-0.312-1.25-0.781-1.406c-0.312-0.156-0.781-0.156-1.25-0.156h-3.281v4.844H93.75V252.656z M98.594,257.812
	c0.625,0,1.25-0.156,1.719-0.469s0.625-0.781,0.625-1.562s-0.312-1.406-0.781-1.562c-0.312-0.156-0.781-0.156-1.25-0.156h-3.594
	v3.906h3.281V257.812z"/>
<path d="M105.625,252.656h4.531c1.562,0,2.656,0.625,3.594,1.562c0.781,0.938,1.094,2.188,1.094,3.75
	c0,1.25-0.156,2.344-0.625,3.281c-0.781,1.719-2.188,2.5-4.062,2.5h-4.531V252.656z M109.688,262.5c0.469,0,0.938,0,1.25-0.156
	c0.625-0.156,1.094-0.625,1.406-1.094s0.469-1.094,0.625-1.719c0-0.469,0.156-0.781,0.156-1.25c0-1.406-0.312-2.5-0.781-3.281
	s-1.406-1.094-2.656-1.094h-2.656v8.594H109.688z"/>
<path d="M117.656,252.656h8.125v1.406h-6.719v3.438h6.094v1.25h-6.094v3.75h6.719v1.406H117.5v-11.25H117.656z"/>
<path d="M128.75,252.656h5.156c0.781,0,1.562,0.156,2.031,0.312c1.094,0.469,1.562,1.406,1.562,2.656
	c0,0.625-0.156,1.25-0.469,1.719s-0.625,0.781-1.094,1.094c0.469,0.156,0.781,0.469,0.938,0.625s0.312,0.781,0.312,1.406v1.562
	c0,0.469,0,0.781,0.156,0.938c0.156,0.312,0.312,0.625,0.469,0.625v0.312h-1.875c0-0.156-0.156-0.156-0.156-0.312s0-0.469,0-0.938
	l-0.156-1.875c0-0.781-0.312-1.25-0.781-1.406c-0.312-0.156-0.781-0.156-1.25-0.156h-3.281v4.844h-1.562V252.656L128.75,252.656z
	 M133.75,257.812c0.625,0,1.25-0.156,1.719-0.469s0.625-0.781,0.625-1.562s-0.312-1.406-0.781-1.562
	c-0.312-0.156-0.781-0.156-1.25-0.156h-3.594v3.906h3.281V257.812z"/>
<path d="M154.844,254.219c0.781,0.938,1.094,2.188,1.094,3.75c0,1.719-0.469,3.125-1.25,4.219c-0.938,1.25-2.344,1.875-4.219,1.875
	c-1.719,0-3.125-0.625-4.062-1.719s-1.25-2.5-1.25-4.219c0-1.562,0.312-2.812,1.094-3.906c0.938-1.406,2.344-2.031,4.219-2.031
	C152.5,252.344,153.906,252.969,154.844,254.219z M153.594,261.406c0.625-0.938,0.938-2.031,0.938-3.281s-0.312-2.344-1.094-3.125
	c-0.625-0.781-1.562-1.25-2.812-1.25c-1.094,0-2.031,0.469-2.812,1.25s-1.094,2.031-1.094,3.594c0,1.25,0.312,2.344,0.938,3.125
	s1.719,1.25,3.125,1.25C152.031,262.812,152.969,262.344,153.594,261.406z"/>
<path d="M158.594,252.656h7.812v1.406h-6.25v3.438h5.469v1.406h-5.469v5.156h-1.562V252.656z"/>
<path d="M217.188,252.5L217.188,252.5c0,2.969-0.625,5-1.875,6.406s-3.281,2.188-5.938,2.188s-4.688-0.781-6.406-2.5
	c-1.562-1.562-2.344-3.906-2.344-6.875v-7.656c0-2.969,0.781-5.312,2.344-6.875s3.594-2.5,6.094-2.5
	c2.656,0,4.688,0.781,6.094,2.188s2.031,3.594,2.188,6.406v0.156H212.5c0-1.719-0.156-2.812-0.625-3.594s-1.406-1.094-2.812-1.094
	c-1.094,0-2.031,0.469-2.656,1.25s-0.938,2.188-0.938,4.062v7.656c0,1.875,0.312,3.125,0.938,4.062s1.562,1.25,2.812,1.25
	s2.031-0.312,2.5-1.094c0.469-0.625,0.625-1.875,0.625-3.594h4.844V252.5z"/>
<path d="M226.875,250.625v10.156h-5v-25.625h8.281c2.5,0,4.531,0.625,5.938,2.031c1.406,1.25,2.188,3.125,2.188,5.469
	c0,1.406-0.312,2.5-0.938,3.438s-1.406,1.719-2.656,2.344c1.25,0.469,2.188,1.25,2.812,2.188c0.625,1.094,0.938,2.344,0.938,3.906
	v1.875c0,0.625,0.156,1.406,0.312,2.188s0.469,1.406,0.938,1.719v0.312h-5.312c-0.469-0.312-0.625-0.938-0.781-1.875
	s-0.156-1.719-0.156-2.656v-1.719c0-1.25-0.312-2.188-0.781-2.969c-0.469-0.625-1.25-1.094-2.188-1.094h-3.594V250.625z
	 M226.875,246.562h3.281c1.094,0,1.719-0.312,2.344-0.938s0.781-1.562,0.781-2.656s-0.312-2.031-0.781-2.812
	s-1.25-1.094-2.344-1.094h-3.281V246.562z"/>
<path d="M261.094,251.562c0,2.969-0.781,5.312-2.5,7.031s-3.75,2.5-6.562,2.5s-4.844-0.781-6.406-2.5s-2.344-4.062-2.344-7.031
	v-7.188c0-2.969,0.781-5.312,2.344-7.031s3.75-2.5,6.406-2.5s4.844,0.781,6.562,2.5c1.562,1.719,2.5,4.062,2.5,7.031V251.562z
	 M256.094,244.375c0-1.875-0.312-3.281-1.094-4.219c-0.625-0.938-1.719-1.406-2.969-1.406s-2.344,0.469-2.969,1.406
	s-0.938,2.344-0.938,4.219v7.188c0,1.875,0.312,3.281,0.938,4.219s1.719,1.406,2.969,1.406s2.344-0.469,2.969-1.406
	s1.094-2.344,1.094-4.219V244.375z"/>
<path d="M277.344,254.062c0-0.938-0.312-1.719-0.781-2.344s-1.406-1.094-2.656-1.719c-2.656-0.938-4.688-2.031-5.938-3.125
	c-1.25-1.25-2.031-2.812-2.031-5c0-2.031,0.781-3.75,2.344-5.156c1.562-1.25,3.438-2.031,5.938-2.031s4.375,0.781,5.938,2.188
	s2.188,3.281,2.188,5.625v0.156H277.5c0-1.094-0.312-2.188-0.938-2.812s-1.406-1.094-2.5-1.094c-0.938,0-1.719,0.312-2.344,0.938
	s-0.781,1.406-0.781,2.344c0,0.781,0.312,1.562,0.938,2.031s1.719,1.094,3.281,1.875c2.344,0.781,4.219,1.875,5.469,3.125
	s1.875,2.969,1.875,5.156s-0.781,3.906-2.188,5.156s-3.438,1.875-5.938,1.875s-4.531-0.781-6.25-2.188s-2.656-3.438-2.656-6.094
	v-0.156h4.844c0,1.562,0.312,2.656,0.938,3.438s1.719,1.094,2.969,1.094c1.094,0,1.875-0.312,2.344-0.781
	C277.031,255.781,277.344,255,277.344,254.062z"/>
<path d="M298.438,254.062c0-0.938-0.312-1.719-0.781-2.344S296.25,250.625,295,250c-2.656-0.938-4.688-2.031-5.938-3.125
	c-1.25-1.25-2.031-2.812-2.031-5c0-2.031,0.781-3.75,2.344-5.156c1.562-1.25,3.438-2.031,5.938-2.031s4.375,0.781,5.938,2.188
	s2.188,3.281,2.188,5.625v0.156h-5c0-1.094-0.312-2.188-0.938-2.812s-1.406-1.094-2.5-1.094c-0.938,0-1.719,0.312-2.344,0.938
	s-0.781,1.406-0.781,2.344c0,0.781,0.312,1.562,0.938,2.031s1.719,1.094,3.281,1.875c2.344,0.781,4.219,1.875,5.469,3.125
	s1.875,2.969,1.875,5.156s-0.781,3.906-2.188,5.156s-3.438,1.875-5.938,1.875s-4.531-0.781-6.25-2.188s-2.656-3.438-2.656-6.094
	v-0.156h4.844c0,1.562,0.312,2.656,0.938,3.438s1.719,1.094,2.969,1.094c1.094,0,1.875-0.312,2.344-0.781
	C298.125,255.781,298.438,255,298.438,254.062z"/>
<path d="M313.125,250.625v10.156h-5v-25.625h8.281c2.5,0,4.531,0.625,5.938,2.031c1.406,1.25,2.188,3.125,2.188,5.469
	c0,1.406-0.312,2.5-0.938,3.438s-1.406,1.719-2.656,2.344c1.25,0.469,2.188,1.25,2.812,2.188c0.625,1.094,0.938,2.344,0.938,3.906
	v1.875c0,0.625,0.156,1.406,0.312,2.188s0.469,1.406,0.938,1.719v0.312h-5.156c-0.469-0.312-0.625-0.938-0.781-1.875
	c-0.156-0.781-0.156-1.719-0.156-2.656v-1.719c0-1.25-0.312-2.188-0.781-2.969c-0.469-0.625-1.25-1.094-2.188-1.094h-3.75V250.625z
	 M313.125,246.562h3.281c1.094,0,1.719-0.312,2.344-0.938c0.469-0.625,0.781-1.562,0.781-2.656s-0.312-2.031-0.781-2.812
	c-0.469-0.625-1.25-1.094-2.344-1.094h-3.281V246.562z"/>
<path d="M347.344,251.562c0,2.969-0.781,5.312-2.5,7.031s-3.75,2.5-6.562,2.5s-4.844-0.781-6.406-2.5s-2.5-4.062-2.5-7.031v-7.188
	c0-2.969,0.781-5.312,2.5-7.031c1.562-1.719,3.75-2.5,6.406-2.5s4.844,0.781,6.562,2.5c1.562,1.719,2.5,4.062,2.5,7.031V251.562z
	 M342.344,244.375c0-1.875-0.312-3.281-1.094-4.219c-0.625-0.938-1.719-1.406-2.969-1.406s-2.344,0.469-2.969,1.406
	s-0.938,2.344-0.938,4.219v7.188c0,1.875,0.312,3.281,0.938,4.219s1.719,1.406,2.969,1.406s2.344-0.469,2.969-1.406
	s1.094-2.344,1.094-4.219V244.375z"/>
<path d="M363.281,255.312h-6.719l-1.406,5.469h-5l7.188-25.625h5.156l7.188,25.625h-5L363.281,255.312z M357.656,251.25h4.688
	L360,242.188h-0.156L357.656,251.25z"/>
<path d="M373.281,260.781v-25.625h7.656c2.656,0,4.844,0.938,6.562,2.969s2.5,4.531,2.5,7.656v4.375c0,3.125-0.781,5.625-2.5,7.656
	s-3.906,2.969-6.562,2.969H373.281z M378.281,239.219v17.656h2.5c1.406,0,2.5-0.625,3.281-1.875s1.094-2.812,1.094-4.844v-4.375
	c0-2.031-0.312-3.594-1.094-4.844s-1.875-1.875-3.281-1.875h-2.5V239.219z"/>
<path d="M406.562,254.062c0-0.938-0.312-1.719-0.781-2.344s-1.406-1.094-2.656-1.719c-2.656-0.938-4.688-2.031-5.938-3.125
	c-1.25-1.25-2.031-2.812-2.031-5c0-2.031,0.781-3.75,2.344-5.156c1.562-1.25,3.438-2.031,5.938-2.031s4.375,0.781,5.938,2.188
	s2.188,3.281,2.188,5.625v0.156h-4.844c0-1.094-0.312-2.188-0.938-2.812c-0.625-0.781-1.406-1.094-2.5-1.094
	c-0.938,0-1.719,0.312-2.344,0.938s-0.781,1.406-0.781,2.344c0,0.781,0.312,1.562,0.938,2.031s1.719,1.094,3.281,1.875
	c2.344,0.781,4.219,1.875,5.469,3.125s1.875,2.969,1.875,5.156s-0.781,3.906-2.188,5.156s-3.438,1.875-5.938,1.875
	s-4.531-0.781-6.25-2.188s-2.656-3.438-2.656-6.094v-0.156h4.844c0,1.562,0.312,2.656,0.938,3.438s1.719,1.094,2.969,1.094
	c1.094,0,1.875-0.312,2.344-0.781C406.25,255.781,406.562,255,406.562,254.062z"/>
<path d="M441.719,252.5L441.719,252.5c0,2.969-0.625,5-1.875,6.406s-3.281,2.188-5.938,2.188s-4.688-0.781-6.406-2.5
	c-1.562-1.562-2.344-3.906-2.344-6.875v-7.656c0-2.969,0.781-5.312,2.344-6.875s3.594-2.5,6.094-2.5
	c2.656,0,4.688,0.781,6.094,2.188s2.031,3.594,2.188,6.406v0.156h-4.844c0-1.719-0.156-2.812-0.625-3.594s-1.406-1.094-2.812-1.094
	c-1.094,0-2.031,0.469-2.656,1.25c-0.625,0.938-0.938,2.188-0.938,4.062v7.656c0,1.875,0.312,3.125,0.938,4.062
	s1.562,1.25,2.812,1.25s2.031-0.312,2.5-1.094c0.469-0.625,0.625-1.875,0.625-3.594h4.844V252.5z"/>
<path d="M464.375,260.781h-5v-10.625h-7.969v10.625h-5v-25.625h5v10.938h7.969v-10.938h5V260.781z"/>
<path d="M486.875,235.156V252.5c0,2.656-0.781,4.844-2.344,6.25s-3.75,2.188-6.25,2.188s-4.688-0.781-6.25-2.188
	c-1.562-1.562-2.344-3.594-2.344-6.25v-17.344h5V252.5c0,1.562,0.312,2.656,0.938,3.438s1.562,1.094,2.656,1.094
	c1.25,0,2.188-0.312,2.812-1.094s0.938-1.875,0.938-3.438v-17.344H486.875z"/>
<path d="M497.031,250.625v10.156h-5v-25.625h8.281c2.5,0,4.531,0.625,5.938,2.031c1.406,1.25,2.188,3.125,2.188,5.469
	c0,1.406-0.312,2.5-0.938,3.438s-1.406,1.719-2.656,2.344c1.25,0.469,2.188,1.25,2.812,2.188c0.625,1.094,0.938,2.344,0.938,3.906
	v1.875c0,0.625,0.156,1.406,0.312,2.188s0.469,1.406,0.938,1.719v0.312h-5.156c-0.469-0.312-0.625-0.938-0.781-1.875
	s-0.156-1.719-0.156-2.656v-1.719c0-1.25-0.312-2.188-0.781-2.969s-1.25-1.094-2.188-1.094h-3.75V250.625z M497.031,246.562h3.281
	c1.094,0,1.719-0.312,2.344-0.938c0.469-0.625,0.781-1.562,0.781-2.656s-0.312-2.031-0.781-2.812
	c-0.469-0.625-1.25-1.094-2.344-1.094h-3.281V246.562z"/>
<path d="M530.156,252.5L530.156,252.5c0,2.969-0.625,5-1.875,6.406s-3.281,2.188-5.938,2.188s-4.688-0.781-6.406-2.5
	c-1.562-1.562-2.344-3.906-2.344-6.875v-7.656c0-2.969,0.781-5.312,2.344-6.875s3.594-2.5,6.094-2.5
	c2.656,0,4.688,0.781,6.094,2.188s2.031,3.594,2.188,6.406v0.156h-4.844c0-1.719-0.156-2.812-0.625-3.594s-1.406-1.094-2.812-1.094
	c-1.094,0-2.031,0.469-2.656,1.25c-0.625,0.938-0.938,2.188-0.938,4.062v7.656c0,1.875,0.312,3.125,0.938,4.062
	s1.562,1.25,2.812,1.25s2.031-0.312,2.5-1.094c0.469-0.625,0.625-1.875,0.625-3.594h4.844V252.5z"/>
<path d="M552.656,260.781h-5v-10.625h-7.969v10.625h-5v-25.625h5v10.938h7.969v-10.938h5V260.781z"/>
<path d="M79.844,152.656h1.719l3.281,5.312l3.281-5.312h1.719l-4.375,6.719v4.531h-1.562v-4.531L79.844,152.656z"/>
<path d="M100.938,154.219c0.781,0.938,1.094,2.188,1.094,3.75c0,1.719-0.469,3.125-1.25,4.219c-0.938,1.25-2.344,1.875-4.219,1.875
	c-1.719,0-3.125-0.625-4.062-1.719s-1.25-2.5-1.25-4.219c0-1.562,0.312-2.812,1.094-3.906c0.938-1.406,2.344-2.031,4.219-2.031
	C98.594,152.344,100,152.969,100.938,154.219z M99.688,161.406c0.625-0.938,0.938-2.031,0.938-3.281s-0.312-2.344-1.094-3.125
	c-0.625-0.781-1.562-1.25-2.812-1.25c-1.094,0-2.031,0.469-2.812,1.25s-1.094,2.031-1.094,3.594c0,1.25,0.312,2.344,0.938,3.125
	s1.719,1.25,3.125,1.25C98.125,162.812,99.062,162.344,99.688,161.406z"/>
<path d="M106.25,152.656v6.875c0,0.781,0.156,1.562,0.469,2.031c0.469,0.781,1.25,1.25,2.344,1.25c1.25,0,2.188-0.469,2.656-1.25
	c0.312-0.469,0.312-1.094,0.312-1.875v-6.875h1.562v6.25c0,1.406-0.156,2.5-0.625,3.125c-0.625,1.406-2.031,2.031-3.906,2.031
	s-3.125-0.625-3.906-2.031c-0.312-0.781-0.625-1.875-0.625-3.125v-6.25h1.719V152.656z"/>
<path d="M116.719,152.656h5.156c0.781,0,1.562,0.156,2.031,0.312c1.094,0.469,1.562,1.406,1.562,2.656
	c0,0.625-0.156,1.25-0.469,1.719s-0.625,0.781-1.094,1.094c0.469,0.156,0.781,0.469,0.938,0.625s0.312,0.781,0.312,1.406v1.562
	c0,0.469,0,0.781,0.156,0.938c0.156,0.312,0.312,0.625,0.469,0.625v0.312h-1.875c0-0.156-0.156-0.156-0.156-0.312s0-0.469,0-0.938
	l-0.156-1.875c0-0.781-0.312-1.25-0.781-1.406c-0.312-0.156-0.781-0.156-1.25-0.156h-3.281v4.844h-1.562V152.656L116.719,152.656z
	 M121.719,157.812c0.625,0,1.25-0.156,1.719-0.469s0.625-0.781,0.625-1.562s-0.312-1.406-0.781-1.562
	c-0.312-0.156-0.781-0.156-1.25-0.156h-3.594v3.75H121.719z"/>
<path d="M133.594,152.656h1.719l5.625,9.062v-9.062h1.406v11.25h-1.719L135,154.844v9.062h-1.406V152.656z"/>
<path d="M148.906,152.656h1.719l4.062,11.25h-1.719l-1.094-3.281H147.5l-1.25,3.281h-1.562L148.906,152.656z M151.406,159.219
	l-1.719-5l-1.719,5H151.406z"/>
<path d="M156.719,152.656h2.188l3.281,9.531l3.125-9.531h2.188v11.25h-1.406v-6.562c0-0.156,0-0.625,0-1.094s0-1.094,0-1.719
	l-3.125,9.375h-1.562l-3.281-9.375v0.156c0,0.312,0,0.625,0,1.25s0,0.938,0,1.25v6.562h-1.406V152.656z"/>
<path d="M170.625,152.656h8.125v1.406h-6.719v3.438h6.094v1.25h-6.094v3.75h6.719v1.406h-8.281v-11.25H170.625z"/>
<path d="M80.938,173.281v-1.094c0.938-0.156,1.719-0.312,2.031-0.469s0.625-0.781,0.938-1.562H85v10.938h-1.406v-7.812H80.938z"/>
<path d="M89.844,178.594c0.312-0.625,0.938-1.406,2.031-1.875l1.406-0.781c0.625-0.312,1.094-0.781,1.406-0.938
	c0.469-0.469,0.625-0.938,0.625-1.406c0-0.625-0.156-1.094-0.625-1.562s-0.938-0.625-1.562-0.625c-0.938,0-1.562,0.312-1.875,1.094
	c-0.156,0.312-0.312,0.938-0.312,1.562h-1.406c0-0.938,0.156-1.719,0.469-2.344c0.625-1.094,1.719-1.562,3.125-1.562
	c1.25,0,2.188,0.312,2.812,0.938s0.938,1.406,0.938,2.344s-0.312,1.562-0.938,2.188c-0.312,0.312-0.938,0.781-1.875,1.25
	l-1.094,0.625c-0.469,0.312-0.938,0.469-1.25,0.781c-0.469,0.469-0.781,0.938-0.938,1.406h6.094v1.25h-7.5
	C89.375,180.156,89.531,179.375,89.844,178.594z"/>
<path d="M99.531,180.312c-0.625-0.781-0.938-1.562-0.938-2.656H100c0,0.781,0.156,1.25,0.469,1.562
	c0.312,0.625,0.938,0.938,1.875,0.938c0.781,0,1.25-0.156,1.719-0.625s0.625-0.938,0.625-1.562c0-0.781-0.156-1.25-0.625-1.562
	s-1.094-0.469-1.875-0.469c-0.156,0-0.156,0-0.312,0s-0.156,0-0.312,0v-1.25c0.156,0,0.312,0,0.312,0s0.156,0,0.312,0
	c0.469,0,0.938-0.156,1.25-0.312c0.625-0.312,0.938-0.781,0.938-1.562c0-0.469-0.156-0.938-0.625-1.25s-0.781-0.469-1.406-0.469
	c-0.938,0-1.562,0.312-1.875,0.938c-0.156,0.312-0.312,0.781-0.312,1.406H98.75c0-0.781,0.156-1.562,0.469-2.031
	c0.625-1.094,1.562-1.562,2.969-1.562c1.094,0,2.031,0.312,2.656,0.781s0.938,1.25,0.938,2.188c0,0.625-0.156,1.25-0.469,1.562
	c-0.156,0.312-0.469,0.469-0.938,0.625c0.625,0.156,1.094,0.469,1.406,0.938s0.469,0.938,0.469,1.719c0,1.094-0.312,1.875-1.094,2.5
	s-1.719,0.938-2.969,0.938C100.938,181.406,100,180.938,99.531,180.312z"/>
<path d="M112.812,181.094v-2.656h-4.844v-1.406l5-6.875h1.094v7.031h1.562v1.25h-1.562v2.656H112.812z M112.812,177.188v-5l-3.438,5
	H112.812z"/>
<path d="M122.188,169.844h1.719l3.281,5.312l3.281-5.312h1.719l-4.375,6.719v4.531h-1.562v-4.531L122.188,169.844z"/>
<path d="M138.438,173.75c0.781,0.625,1.094,1.719,1.094,3.125c0,1.25-0.312,2.344-0.938,3.281c-0.625,0.781-1.562,1.25-2.969,1.25
	c-1.094,0-2.031-0.312-2.656-1.094s-0.938-1.719-0.938-3.125s0.312-2.5,1.094-3.281c0.625-0.781,1.562-1.25,2.812-1.25
	C136.875,172.656,137.656,172.969,138.438,173.75z M137.5,179.062c0.312-0.625,0.469-1.406,0.469-2.344
	c0-0.781-0.156-1.406-0.312-1.875c-0.312-0.781-1.094-1.094-2.031-1.094c-0.781,0-1.406,0.312-1.875,0.938
	c-0.312,0.625-0.625,1.406-0.625,2.344s0.156,1.562,0.625,2.188c0.312,0.625,0.938,0.938,1.719,0.938
	C136.562,180.156,137.188,179.844,137.5,179.062z"/>
<path d="M143.281,172.812v5.469c0,0.469,0,0.781,0.156,1.094c0.312,0.469,0.625,0.781,1.406,0.781c0.938,0,1.562-0.469,1.875-1.25
	c0.156-0.469,0.312-1.094,0.312-1.875v-4.062h1.406v8.125h-1.25v-1.25c-0.156,0.312-0.469,0.625-0.625,0.781
	c-0.625,0.469-1.25,0.625-2.031,0.625c-1.094,0-1.875-0.312-2.344-1.094c-0.156-0.469-0.312-0.938-0.312-1.719v-5.625H143.281z"/>
<path d="M151.25,172.812h1.25v1.406c0.156-0.312,0.312-0.625,0.781-0.938s0.938-0.625,1.406-0.625c0,0,0,0,0.156,0s0.156,0,0.312,0
	v1.406c-0.156,0-0.156,0-0.156,0h-0.156c-0.625,0-1.25,0.156-1.562,0.625s-0.625,0.938-0.625,1.562v4.688h-1.406V172.812z"/>
<path d="M163.438,177.5c0,0.625,0.156,1.094,0.469,1.562c0.469,0.781,1.406,1.094,2.5,1.094c0.625,0,1.094-0.156,1.562-0.312
	c0.938-0.312,1.25-0.938,1.25-1.719c0-0.625-0.156-1.094-0.625-1.25c-0.312-0.312-0.938-0.469-1.719-0.625l-1.406-0.312
	c-0.938-0.156-1.719-0.469-2.031-0.781c-0.625-0.469-1.094-1.094-1.094-2.031s0.312-1.875,1.094-2.5s1.562-0.938,2.812-0.938
	c1.094,0,2.188,0.312,2.969,0.781c0.781,0.625,1.25,1.406,1.25,2.656h-1.406c0-0.625-0.156-1.094-0.469-1.406
	c-0.469-0.625-1.25-0.938-2.188-0.938c-0.781,0-1.406,0.156-1.875,0.625s-0.625,0.781-0.625,1.25c0,0.625,0.156,0.938,0.625,1.25
	c0.312,0.156,0.938,0.312,2.031,0.625l1.562,0.312c0.781,0.156,1.25,0.469,1.719,0.781c0.625,0.469,1.094,1.25,1.094,2.344
	c0,1.25-0.469,2.188-1.25,2.656s-1.875,0.781-3.125,0.781c-1.406,0-2.5-0.312-3.125-1.094c-0.781-0.781-1.094-1.719-1.094-2.812
	H163.438z"/>
<path d="M173.594,170.625H175v2.344h1.25v1.094H175v5.312c0,0.312,0.156,0.469,0.312,0.625c0.156,0,0.312,0.156,0.469,0.156h0.156
	c0,0,0.156,0,0.312,0v1.094c-0.156,0-0.312,0.156-0.469,0.156s-0.312,0-0.625,0c-0.625,0-1.094-0.156-1.25-0.469
	s-0.312-0.781-0.312-1.25v-5.469H172.5v-1.094h1.094V170.625L173.594,170.625z"/>
<path d="M178.438,172.812h1.25v1.406c0.156-0.312,0.312-0.625,0.781-0.938s0.938-0.625,1.406-0.625c0,0,0,0,0.156,0s0.156,0,0.312,0
	v1.406c-0.156,0-0.156,0-0.156,0h-0.156c-0.625,0-1.25,0.156-1.562,0.625s-0.625,0.938-0.625,1.562v4.688h-1.406V172.812z"/>
<path d="M189.375,173.125c0.469,0.312,0.938,0.625,1.25,1.094s0.469,0.938,0.469,1.406c0.156,0.312,0.156,0.938,0.156,1.875h-5.938
	c0,0.781,0.156,1.562,0.625,2.031c0.312,0.469,0.938,0.781,1.719,0.781s1.25-0.312,1.719-0.781c0.312-0.312,0.469-0.625,0.469-0.938
	h1.406c0,0.312-0.156,0.625-0.312,0.938s-0.469,0.625-0.625,0.938c-0.469,0.469-0.938,0.625-1.562,0.781
	c-0.312,0.156-0.625,0.156-1.094,0.156c-0.938,0-1.875-0.312-2.5-1.094s-1.094-1.719-1.094-3.125c0-1.25,0.312-2.344,1.094-3.125
	s1.562-1.25,2.812-1.25C188.281,172.656,188.75,172.812,189.375,173.125z M189.844,176.25c0-0.625-0.156-1.094-0.312-1.406
	c-0.312-0.625-0.938-0.938-1.875-0.938c-0.625,0-1.094,0.156-1.562,0.625s-0.625,1.094-0.625,1.719H189.844z"/>
<path d="M198.75,173.125c0.469,0.312,0.938,0.625,1.25,1.094s0.469,0.938,0.469,1.406c0.156,0.312,0.156,0.938,0.156,1.875h-5.938
	c0,0.781,0.156,1.562,0.625,2.031c0.312,0.469,0.938,0.781,1.719,0.781s1.25-0.312,1.719-0.781c0.312-0.312,0.469-0.625,0.469-0.938
	h1.406c0,0.312-0.156,0.625-0.312,0.938s-0.469,0.625-0.625,0.938c-0.469,0.469-0.938,0.625-1.562,0.781
	c-0.312,0.156-0.625,0.156-1.094,0.156c-0.938,0-1.875-0.312-2.5-1.094s-1.094-1.719-1.094-3.125c0-1.25,0.312-2.344,1.094-3.125
	s1.562-1.25,2.812-1.25C197.656,172.656,198.125,172.812,198.75,173.125z M199.219,176.25c0-0.625-0.156-1.094-0.312-1.406
	c-0.312-0.625-0.938-0.938-1.875-0.938c-0.625,0-1.094,0.156-1.562,0.625s-0.625,1.094-0.625,1.719H199.219z"/>
<path d="M203.438,170.625h1.406v2.344h1.25v1.094h-1.406v5.312c0,0.312,0.156,0.469,0.312,0.625c0.156,0,0.312,0.156,0.469,0.156
	h0.156c0,0,0.156,0,0.312,0v1.094c-0.156,0-0.312,0.156-0.469,0.156s-0.312,0-0.625,0c-0.625,0-1.094-0.156-1.25-0.469
	s-0.312-0.781-0.312-1.25v-5.469h-1.094v-1.094h1.094v-2.5H203.438z"/>
<path d="M88.594,187.812c0.781,0.781,1.25,1.562,1.25,2.5h-1.406c-0.156-0.781-0.469-1.25-0.938-1.719s-1.25-0.625-2.031-0.625
	c-1.094,0-2.031,0.312-2.656,1.094s-0.938,2.031-0.938,3.594c0,1.25,0.312,2.344,0.938,3.125s1.562,1.25,2.656,1.25
	s1.875-0.469,2.5-1.25c0.312-0.469,0.469-1.094,0.625-1.719H90c-0.156,1.25-0.625,2.188-1.25,2.969
	c-0.938,0.938-2.031,1.406-3.594,1.406c-1.25,0-2.344-0.469-3.281-1.25c-1.094-1.094-1.719-2.656-1.719-4.844
	c0-1.719,0.469-2.969,1.25-4.062c0.938-1.094,2.188-1.719,3.906-1.719C86.719,186.719,87.812,187.031,88.594,187.812z"/>
<path d="M92.5,187.031h1.406v1.562H92.5V187.031z M92.5,190.156h1.406v8.125H92.5V190.156z"/>
<path d="M96.875,187.812h1.406v2.344h1.25v1.094h-1.25v5.312c0,0.312,0.156,0.469,0.312,0.625c0.156,0,0.312,0.156,0.469,0.156
	h0.156c0,0,0.156,0,0.312,0v1.094c-0.156,0-0.312,0.156-0.469,0.156s-0.312,0-0.625,0c-0.625,0-1.094-0.156-1.25-0.469
	s-0.312-0.938-0.312-1.562v-5.469h-1.094V190h1.094V187.812z"/>
<path d="M106.719,190h1.562c-0.156,0.469-0.625,1.719-1.25,3.594c-0.469,1.406-0.938,2.5-1.25,3.438
	c-0.781,2.031-1.406,3.281-1.719,3.75c-0.312,0.625-0.938,0.781-1.719,0.781c-0.156,0-0.312,0-0.469,0s-0.156,0-0.312-0.156v-1.25
	c0.312,0,0.469,0.156,0.469,0.156c0.156,0,0.156,0,0.312,0c0.312,0,0.469,0,0.625-0.156s0.156-0.156,0.312-0.312
	c0,0,0.156-0.312,0.312-0.625s0.312-0.625,0.312-0.781L100.938,190h1.562l2.188,6.719L106.719,190z"/>
<path d="M109.375,199.844c0.312,0,0.625-0.312,0.781-0.781c0-0.156,0.156-0.469,0.156-0.625c0,0,0,0,0-0.156c0,0,0,0,0-0.156h-0.938
	v-1.719h1.562v1.562c0,0.625-0.156,1.094-0.312,1.562s-0.625,0.781-1.25,0.781V199.844z"/>
<path d="M120.312,194.688c0,0.625,0.156,1.094,0.469,1.562c0.469,0.781,1.406,1.094,2.5,1.094c0.625,0,1.094-0.156,1.562-0.312
	c0.938-0.312,1.25-0.938,1.25-1.719c0-0.625-0.156-1.094-0.625-1.25c-0.312-0.312-0.938-0.469-1.719-0.625l-1.406-0.312
	c-0.938-0.156-1.719-0.469-2.031-0.781c-0.625-0.469-1.094-1.094-1.094-2.031s0.312-1.875,1.094-2.5s1.562-0.938,2.812-0.938
	c1.094,0,2.188,0.312,2.969,0.781c0.781,0.625,1.25,1.406,1.25,2.656h-1.406c0-0.625-0.156-1.094-0.469-1.406
	c-0.469-0.625-1.25-0.938-2.188-0.938c-0.781,0-1.406,0.156-1.875,0.625s-0.625,0.781-0.625,1.25c0,0.625,0.156,0.938,0.625,1.25
	c0.312,0.156,0.938,0.312,2.031,0.625l1.562,0.312c0.781,0.156,1.25,0.469,1.719,0.781c0.625,0.469,1.094,1.25,1.094,2.344
	c0,1.25-0.469,2.188-1.25,2.656s-1.875,0.781-3.125,0.781c-1.406,0-2.5-0.312-3.125-1.094c-0.781-0.781-1.094-1.719-1.094-2.812
	H120.312z"/>
<path d="M138.594,187.031v1.406h-3.75v9.844h-1.562v-9.844h-3.75v-1.406H138.594z"/>
<path d="M145.781,190.469v-1.094c0.938-0.156,1.719-0.312,2.031-0.469s0.625-0.781,0.938-1.562h1.094v10.938h-1.406v-7.812H145.781z
	"/>
<path d="M154.688,195.781c0.312-0.625,0.938-1.406,2.031-1.875l1.406-0.781c0.625-0.312,1.094-0.781,1.406-0.938
	c0.469-0.469,0.625-0.938,0.625-1.406c0-0.625-0.156-1.094-0.625-1.562s-0.938-0.625-1.562-0.625c-0.938,0-1.562,0.312-1.875,1.094
	c-0.156,0.312-0.312,0.938-0.312,1.562h-1.406c0-0.938,0.156-1.719,0.469-2.344c0.625-1.094,1.719-1.562,3.125-1.562
	c1.25,0,2.188,0.312,2.812,0.938s0.938,1.406,0.938,2.188c0,0.938-0.312,1.562-0.938,2.188c-0.312,0.312-0.938,0.781-1.875,1.25
	l-1.094,0.625c-0.469,0.312-0.938,0.469-1.25,0.781c-0.469,0.469-0.781,0.938-0.938,1.406h5.938v1.25h-7.5
	C154.219,197.344,154.375,196.562,154.688,195.781z"/>
<path d="M164.219,197.5c-0.625-0.781-0.938-1.562-0.938-2.656h1.406c0,0.781,0.156,1.25,0.469,1.562
	c0.312,0.625,0.938,0.938,1.875,0.938c0.781,0,1.25-0.156,1.719-0.625s0.625-0.938,0.625-1.562c0-0.781-0.156-1.25-0.625-1.562
	s-1.094-0.469-1.875-0.469c-0.156,0-0.156,0-0.312,0s-0.156,0-0.312,0v-1.25c0.156,0,0.312,0,0.312,0s0.156,0,0.312,0
	c0.469,0,0.938-0.156,1.25-0.312c0.625-0.312,0.938-0.781,0.938-1.562c0-0.469-0.156-0.938-0.625-1.25s-0.781-0.469-1.406-0.469
	c-0.938,0-1.562,0.312-1.875,0.938c-0.156,0.312-0.312,0.781-0.312,1.406h-1.406c0-0.781,0.156-1.562,0.469-2.031
	c0.625-1.094,1.562-1.562,2.969-1.562c1.094,0,2.031,0.312,2.656,0.781s0.938,1.25,0.938,2.188c0,0.625-0.156,1.25-0.469,1.562
	c-0.156,0.312-0.469,0.469-0.938,0.625c0.625,0.156,1.094,0.469,1.406,0.938s0.469,0.938,0.469,1.719c0,1.094-0.312,1.875-1.094,2.5
	s-1.719,0.938-2.969,0.938C165.781,198.594,164.844,198.125,164.219,197.5z"/>
<path d="M177.656,198.281v-2.656h-4.844v-1.406l5-6.875h1.094v7.031h1.562v1.25h-1.562v2.656H177.656z M177.656,194.375v-5l-3.438,5
	H177.656z"/>
<path d="M183.75,195.469c0.156,0.781,0.469,1.25,1.094,1.562c0.312,0.156,0.625,0.156,1.094,0.156c0.781,0,1.406-0.312,1.875-0.781
	s0.625-1.094,0.625-1.719c0-0.781-0.156-1.406-0.625-1.719s-1.094-0.625-1.719-0.625c-0.469,0-0.938,0.156-1.25,0.312
	s-0.625,0.469-0.938,0.781h-1.25l0.781-5.938h5.625v1.25h-4.688l-0.469,2.969c0.312-0.156,0.469-0.312,0.781-0.469
	c0.469-0.156,0.938-0.312,1.406-0.312c0.938,0,1.875,0.312,2.5,0.938s1.094,1.406,1.094,2.5s-0.312,1.875-0.938,2.656
	s-1.719,1.25-3.125,1.25c-0.938,0-1.719-0.312-2.344-0.781s-1.094-1.25-1.094-2.344h1.562V195.469z"/>
<path d="M524.375,186.562h4.531c1.562,0,2.656,0.625,3.594,1.562c0.781,0.938,1.094,2.188,1.094,3.75
	c0,1.25-0.156,2.344-0.625,3.281c-0.781,1.719-2.188,2.5-4.062,2.5h-4.531V186.562z M528.594,196.406c0.469,0,0.938,0,1.25-0.156
	c0.625-0.156,1.094-0.625,1.406-1.094s0.469-1.094,0.625-1.719c0-0.469,0.156-0.781,0.156-1.25c0-1.406-0.312-2.5-0.781-3.281
	s-1.406-1.094-2.656-1.094h-2.656v8.594H528.594z"/>
<path d="M539.688,186.562h1.719l4.062,11.25h-1.719l-1.094-3.281h-4.375l-1.25,3.281h-1.562L539.688,186.562z M542.188,193.125
	l-1.719-5l-1.719,5H542.188z"/>
<path d="M554.531,186.562v1.406h-3.75v9.844h-1.562v-9.844h-3.906v-1.406H554.531z"/>
<path d="M556.719,186.562h8.125v1.406h-6.719v3.438h6.094v1.25h-6.094v3.75h6.719v1.406h-8.281v-11.25H556.719z"/>
<path d="M642.656,290.625h4.531c1.562,0,2.656,0.625,3.594,1.562c0.781,0.938,1.094,2.188,1.094,3.75
	c0,1.25-0.156,2.344-0.625,3.281c-0.781,1.719-2.188,2.5-4.062,2.5h-4.531V290.625z M646.875,300.625c0.469,0,0.938,0,1.25-0.156
	c0.625-0.156,1.094-0.625,1.406-1.094s0.469-1.094,0.625-1.719c0-0.469,0.156-0.781,0.156-1.25c0-1.406-0.312-2.5-0.781-3.281
	s-1.406-1.094-2.656-1.094h-2.656v8.594H646.875L646.875,300.625z"/>
<path d="M663.75,292.344c0.781,0.938,1.094,2.188,1.094,3.75c0,1.719-0.469,3.125-1.25,4.219c-0.938,1.25-2.344,1.875-4.219,1.875
	c-1.719,0-3.125-0.625-4.062-1.719s-1.25-2.5-1.25-4.219c0-1.562,0.312-2.812,1.094-3.906c0.938-1.406,2.344-2.031,4.219-2.031
	C661.406,290.312,662.812,291.094,663.75,292.344z M662.5,299.375c0.625-0.938,0.938-2.031,0.938-3.281s-0.312-2.344-1.094-3.125
	c-0.625-0.781-1.562-1.25-2.812-1.25c-1.094,0-2.031,0.469-2.812,1.25s-1.094,2.031-1.094,3.594c0,1.25,0.312,2.344,0.938,3.125
	s1.719,1.25,3.125,1.25C660.938,300.938,661.875,300.469,662.5,299.375z"/>
<path d="M667.5,290.625h1.562v9.844h5.625v1.406H667.5V290.625z"/>
<path d="M676.875,290.625h1.562v9.844h5.625v1.406h-7.188V290.625z"/>
<path d="M689.531,290.625h1.719l4.062,11.25h-1.719l-1.094-3.281h-4.375l-1.25,3.281h-1.562L689.531,290.625z M692.031,297.344
	l-1.719-5l-1.719,5H692.031z"/>
<path d="M697.5,290.625h5.156c0.781,0,1.562,0.156,2.031,0.312c1.094,0.469,1.562,1.406,1.562,2.656c0,0.625-0.156,1.25-0.469,1.719
	s-0.625,0.781-1.094,1.094c0.469,0.156,0.781,0.469,0.938,0.625c0.156,0.312,0.312,0.781,0.312,1.406V300
	c0,0.469,0,0.781,0.156,0.938c0.156,0.312,0.312,0.625,0.469,0.625v0.312h-1.875c0-0.156-0.156-0.156-0.156-0.312s0-0.469,0-0.938
	l-0.156-1.875c0-0.781-0.312-1.25-0.781-1.406c-0.312-0.156-0.781-0.156-1.25-0.156h-3.281v4.844H697.5V290.625L697.5,290.625z
	 M702.5,295.781c0.625,0,1.25-0.156,1.719-0.469s0.625-0.781,0.625-1.562s-0.312-1.406-0.781-1.562
	c-0.312-0.156-0.781-0.156-1.25-0.156h-3.594v3.906h3.281V295.781z"/>
<path d="M710.312,298.281c0,0.625,0.156,1.094,0.469,1.562c0.469,0.781,1.406,1.094,2.5,1.094c0.625,0,1.094-0.156,1.562-0.312
	c0.938-0.312,1.25-0.938,1.25-1.719c0-0.625-0.156-1.094-0.625-1.25c-0.312-0.312-0.938-0.469-1.719-0.625l-1.406-0.312
	c-0.938-0.156-1.562-0.469-2.031-0.781c-0.625-0.469-1.094-1.094-1.094-2.031s0.312-1.875,1.094-2.5
	c0.625-0.625,1.562-0.938,2.812-0.938c1.094,0,2.188,0.312,2.969,0.781s1.25,1.406,1.25,2.656h-1.406
	c0-0.625-0.156-1.094-0.469-1.406c-0.469-0.625-1.25-0.938-2.188-0.938c-0.781,0-1.406,0.156-1.875,0.625s-0.625,0.781-0.625,1.25
	c0,0.625,0.156,0.938,0.625,1.25c0.312,0.156,0.938,0.312,2.031,0.625l1.562,0.312c0.781,0.156,1.25,0.469,1.719,0.781
	c0.625,0.469,1.094,1.25,1.094,2.344c0,1.25-0.469,2.188-1.25,2.656s-1.875,0.781-3.125,0.781c-1.406,0-2.5-0.312-3.125-1.094
	c-0.781-0.781-1.094-1.719-1.094-2.812H710.312L710.312,298.281z"/>
<path d="M694.531,156.719v-1.094c0.938-0.156,1.719-0.312,2.031-0.469s0.625-0.781,0.938-1.562h1.094v10.938h-1.406v-7.812H694.531z
	"/>
<path d="M703.438,161.875c0.312-0.625,0.938-1.406,2.031-1.875l1.406-0.781c0.625-0.312,1.094-0.781,1.406-0.938
	c0.469-0.469,0.625-0.938,0.625-1.406c0-0.625-0.156-1.094-0.625-1.562s-0.938-0.625-1.562-0.625c-0.938,0-1.562,0.312-1.875,1.094
	c-0.156,0.312-0.312,0.938-0.312,1.562h-1.406c0-0.938,0.156-1.719,0.469-2.344c0.625-1.094,1.719-1.562,3.125-1.562
	c1.25,0,2.188,0.312,2.812,0.938s0.938,1.406,0.938,2.188c0,0.938-0.312,1.562-0.938,2.188c-0.312,0.312-0.938,0.781-1.875,1.25
	l-1.094,0.625c-0.469,0.312-0.938,0.469-1.25,0.781c-0.469,0.469-0.781,0.938-0.938,1.406h5.938v1.25h-7.5
	C702.969,163.438,703.125,162.656,703.438,161.875z"/>
<path d="M712.969,163.594c-0.625-0.781-0.938-1.562-0.938-2.656h1.406c0,0.781,0.156,1.25,0.469,1.562
	c0.312,0.625,0.938,0.938,1.875,0.938c0.781,0,1.25-0.156,1.719-0.625s0.625-0.938,0.625-1.562c0-0.781-0.156-1.25-0.625-1.562
	s-1.094-0.469-1.875-0.469c-0.156,0-0.156,0-0.312,0s-0.156,0-0.312,0v-1.25c0.156,0,0.312,0,0.312,0s0.156,0,0.312,0
	c0.469,0,0.938-0.156,1.25-0.312c0.625-0.312,0.938-0.781,0.938-1.562c0-0.469-0.156-0.938-0.625-1.25s-0.781-0.469-1.406-0.469
	c-0.938,0-1.562,0.312-1.875,0.938c-0.156,0.312-0.312,0.781-0.312,1.406h-1.406c0-0.781,0.156-1.562,0.469-2.031
	c0.625-1.094,1.562-1.562,2.969-1.562c1.094,0,2.031,0.312,2.656,0.781s0.938,1.25,0.938,2.188c0,0.625-0.156,1.25-0.469,1.562
	c-0.156,0.312-0.469,0.469-0.938,0.625c0.625,0.156,1.094,0.469,1.406,0.938s0.469,0.938,0.469,1.719c0,1.094-0.312,1.875-1.094,2.5
	s-1.719,0.938-2.969,0.938C714.531,164.688,713.594,164.375,712.969,163.594z"/>
<line fill="none" stroke="#333333" stroke-miterlimit="10" x1="575.312" y1="199.844" x2="718.438" y2="199.844"/>
<path d="M595,236.094c0.938-0.938,2.188-1.562,3.75-1.562v-1.562h1.094v1.562c1.562,0.156,2.812,0.625,3.75,1.406
	s1.25,1.875,1.406,3.281h-2.188c0-0.625-0.156-1.094-0.469-1.562c-0.469-0.781-1.406-1.25-2.5-1.25v5.938
	c1.875,0.469,3.125,1.094,3.906,1.562c1.094,0.781,1.719,1.875,1.719,3.438c0,2.188-0.781,3.75-2.188,4.688
	c-0.781,0.469-1.875,0.781-3.438,0.938v2.344h-1.094v-2.344c-2.344-0.156-3.906-0.938-4.844-2.5
	c-0.469-0.781-0.625-1.875-0.625-3.281h2.188c0,1.094,0.312,1.875,0.469,2.5c0.469,0.938,1.406,1.406,2.812,1.562v-6.719
	c-1.719-0.312-3.125-0.938-3.906-1.719s-1.25-1.875-1.25-3.281C593.594,238.281,594.062,237.188,595,236.094z M596.562,241.25
	c0.469,0.469,1.25,0.781,2.188,0.938v-5.781c-1.094,0-1.875,0.312-2.344,0.938s-0.625,1.25-0.625,1.875
	C595.781,240.156,596.094,240.781,596.562,241.25z M602.812,249.688c0.312-0.469,0.469-1.094,0.469-1.719
	c0-1.094-0.312-1.719-1.094-2.344c-0.469-0.312-1.094-0.625-2.188-0.938v6.406C601.25,251.094,602.188,250.625,602.812,249.688z"/>
<rect x="613.75" y="226.406" fill="#FFFFFF" width="104.688" height="39.062"/>
<polyline fill="none" stroke="#3B6E8F" stroke-width="3" stroke-miterlimit="10" points="83.594,358.906 83.594,377.344
	242.5,377.344 242.5,359.219 242.5,377.344 242.5,359.219 "/>
<line fill="none" stroke="#3B6E8F" stroke-width="3" stroke-miterlimit="10" x1="162.969" y1="377.344" x2="162.969" y2="412.344"/>
<polyline fill="none" stroke="#B05C30" stroke-width="3" stroke-miterlimit="10" points="257.031,358.906 257.031,377.344
	458.594,377.344 458.594,359.219 458.594,377.344 458.594,359.219 "/>
<line fill="none" stroke="#B05C30" stroke-width="3" stroke-miterlimit="10" x1="357.812" y1="377.344" x2="357.812" y2="412.344"/>
<polyline fill="none" stroke="#113556" stroke-width="3" stroke-miterlimit="10" points="473.125,358.906 473.125,377.344
	546.406,377.344 546.406,359.219 546.406,377.344 546.406,359.219 "/>
<line fill="none" stroke="#113556" stroke-width="3" stroke-miterlimit="10" x1="509.688" y1="377.344" x2="509.688" y2="412.344"/>
<path fill="#3B6E8F" d="M109.375,438.281v8.438h-4.062v-21.094h6.875c2.031,0,3.75,0.625,4.844,1.719
	c1.25,1.094,1.719,2.656,1.719,4.531c0,1.094-0.312,2.031-0.781,2.812s-1.25,1.406-2.188,1.875c1.094,0.312,1.875,0.938,2.344,1.875
	c0.469,0.781,0.781,1.875,0.781,3.125v1.562c0,0.625,0,1.25,0.156,1.875s0.312,1.094,0.781,1.406v0.312h-4.219
	c-0.312-0.312-0.625-0.781-0.625-1.562s-0.156-1.406-0.156-2.188v-1.406c0-1.094-0.156-1.875-0.625-2.5s-1.094-0.938-1.875-0.938
	h-2.969V438.281z M109.375,435h2.812c0.781,0,1.406-0.312,1.875-0.781s0.625-1.25,0.625-2.188s-0.156-1.719-0.625-2.344
	s-1.094-0.781-1.875-0.781h-2.812V435z"/>
<path fill="#3B6E8F" d="M137.656,439.062c0,2.5-0.625,4.375-2.031,5.781s-3.125,2.031-5.312,2.031s-4.062-0.625-5.312-2.031
	s-2.031-3.281-2.031-5.781v-5.938c0-2.5,0.625-4.375,2.031-5.781s3.125-2.188,5.312-2.188s4.062,0.781,5.312,2.188
	c1.406,1.406,2.031,3.281,2.031,5.781V439.062z M133.594,433.125c0-1.562-0.312-2.656-0.781-3.438
	c-0.625-0.781-1.406-1.094-2.5-1.094s-1.875,0.312-2.5,1.094c-0.469,0.781-0.781,1.875-0.781,3.438v5.938
	c0,1.562,0.312,2.656,0.781,3.438s1.406,1.094,2.5,1.094s1.875-0.312,2.5-1.094s0.781-1.875,0.781-3.438V433.125z"/>
<path fill="#3B6E8F" d="M155.781,425.625V440c0,2.188-0.625,4.062-2.031,5.156c-1.25,1.25-2.969,1.875-5.156,1.875
	s-3.906-0.625-5.156-1.875s-2.031-2.969-2.031-5.156v-14.375h4.062V440c0,1.25,0.312,2.188,0.781,2.812s1.25,0.938,2.188,0.938
	s1.719-0.312,2.344-0.938s0.781-1.562,0.781-2.812v-14.375H155.781z"/>
<path fill="#3B6E8F" d="M172.5,428.906h-4.688v17.812h-4.062v-17.812h-4.688v-3.281h13.594v3.281H172.5z"/>
<path fill="#3B6E8F" d="M180.156,446.719h-4.062v-21.094h4.062V446.719z"/>
<path fill="#3B6E8F" d="M199.688,446.719h-4.062l-6.406-13.438h-0.156v13.438H185v-21.094h4.062l6.406,13.438h0.156v-13.438h4.062
	V446.719z"/>
<path fill="#3B6E8F" d="M218.125,443.594c-0.625,0.938-1.406,1.719-2.5,2.344s-2.656,1.094-4.375,1.094
	c-2.188,0-4.062-0.625-5.469-2.031c-1.406-1.25-2.031-3.281-2.031-5.625v-6.406c0-2.5,0.625-4.375,2.031-5.625
	c1.25-1.406,3.125-2.031,5.312-2.031c2.344,0,4.062,0.625,5.312,1.719c1.094,1.094,1.719,2.812,1.875,4.844v0.156h-3.906
	c0-1.25-0.312-2.031-0.781-2.656s-1.25-0.781-2.344-0.781c-0.938,0-1.719,0.312-2.344,1.094s-0.781,1.719-0.781,3.281v6.406
	c0,1.406,0.312,2.5,0.938,3.281s1.406,1.094,2.5,1.094c0.781,0,1.406-0.156,1.875-0.312s0.781-0.625,0.938-0.938v-3.75h-2.812
	v-2.969h6.875v7.812H218.125z"/>
<path fill="#3B6E8F" d="M122.5,476.406h-4.062l-6.406-13.438h-0.156v13.438h-4.062v-21.094h4.062l6.406,13.438h0.156v-13.438h4.062
	V476.406z"/>
<path fill="#3B6E8F" d="M141.094,455.312v14.375c0,2.188-0.625,4.062-2.031,5.156c-1.25,1.25-2.969,1.875-5.156,1.875
	s-3.906-0.625-5.156-1.875s-2.031-2.969-2.031-5.156v-14.375h4.062v14.375c0,1.25,0.312,2.188,0.781,2.812s1.25,0.938,2.188,0.938
	s1.719-0.312,2.344-0.938s0.781-1.562,0.781-2.812v-14.375H141.094z"/>
<path fill="#3B6E8F" d="M150.625,455.312l3.75,15.469h0.156l3.75-15.469h5.312v21.094h-4.062v-6.094l0.312-8.281h-0.156
	l-4.062,14.375h-2.5l-4.062-14.219h-0.156l0.312,8.125v6.094h-3.906v-21.094H150.625L150.625,455.312z"/>
<path fill="#3B6E8F" d="M168.125,476.406v-21.094h6.25c2.188,0,3.906,0.469,5.156,1.406s1.875,2.344,1.875,4.375
	c0,0.938-0.156,1.875-0.625,2.656s-1.094,1.406-2.031,1.719c1.094,0.312,1.875,0.781,2.5,1.719c0.469,0.938,0.781,1.875,0.781,3.125
	c0,2.031-0.625,3.594-1.719,4.531c-1.094,1.094-2.812,1.562-5,1.562H168.125z M172.344,464.219h2.344
	c0.781,0,1.562-0.312,1.875-0.781c0.469-0.469,0.625-1.094,0.625-2.031s-0.156-1.719-0.625-2.188s-1.094-0.625-2.031-0.625H172.5
	v5.625H172.344z M172.344,467.031v5.938h2.969c0.938,0,1.562-0.312,1.875-0.781c0.469-0.469,0.625-1.25,0.625-2.188
	s-0.156-1.719-0.625-2.344c-0.312-0.469-0.938-0.781-1.719-0.781h-3.125V467.031z"/>
<path fill="#3B6E8F" d="M197.188,467.031h-7.031v5.938h8.281v3.281h-12.5v-21.094h12.5v3.281h-8.281v5.312h7.031V467.031z"/>
<path fill="#3B6E8F" d="M206.094,467.969v8.438h-4.062v-21.094h6.875c2.031,0,3.75,0.625,4.844,1.719
	c1.25,1.094,1.719,2.656,1.719,4.531c0,1.094-0.312,2.031-0.781,2.812s-1.25,1.406-2.188,1.875c1.094,0.312,1.875,0.938,2.344,1.875
	c0.469,0.781,0.781,1.875,0.781,3.125v1.562c0,0.625,0,1.25,0.156,1.875s0.312,1.094,0.781,1.406v0.312h-4.219
	c-0.312-0.312-0.625-0.781-0.625-1.562s-0.156-1.406-0.156-2.188v-1.406c0-1.094-0.156-1.875-0.625-2.5s-1.094-0.938-1.875-0.938
	h-2.969V467.969z M206.094,464.688h2.812c0.781,0,1.406-0.312,1.875-0.781s0.625-1.25,0.625-2.188s-0.156-1.719-0.625-2.344
	s-1.094-0.781-1.875-0.781h-2.812V464.688z"/>
<path fill="#113556" d="M480.938,439.375L480.938,439.375c0,2.344-0.469,4.219-1.562,5.312c-1.094,1.25-2.812,1.719-5,1.719
	s-3.906-0.625-5.156-2.031s-2.031-3.281-2.031-5.625v-6.25c0-2.5,0.625-4.375,1.875-5.625c1.25-1.406,2.969-2.031,5-2.031
	c2.188,0,3.906,0.625,5.156,1.875c1.094,1.25,1.719,2.969,1.719,5.312v0.156h-3.906c0-1.406-0.156-2.344-0.625-2.969
	s-1.25-0.938-2.344-0.938c-0.938,0-1.562,0.312-2.188,1.094c-0.469,0.781-0.781,1.875-0.781,3.281v6.406
	c0,1.562,0.312,2.656,0.781,3.281c0.469,0.781,1.25,1.094,2.344,1.094c0.938,0,1.719-0.312,2.031-0.938
	c0.469-0.625,0.625-1.562,0.469-2.969h4.219V439.375z"/>
<path fill="#113556" d="M499.688,446.094h-4.062V437.5h-6.562v8.75H485V425h4.062v9.062h6.562V425h4.062V446.094z"/>
<path fill="#113556" d="M515.312,436.875h-7.031v5.938h8.281v3.281h-12.5V425h12.5v3.281h-8.281v5.312h7.031V436.875z"/>
<path fill="#113556" d="M533.281,439.375L533.281,439.375c0,2.344-0.469,4.219-1.562,5.312c-1.094,1.25-2.812,1.719-5,1.719
	s-3.906-0.625-5.156-2.031s-2.031-3.281-2.031-5.625v-6.25c0-2.5,0.625-4.375,1.875-5.625c1.25-1.406,2.969-2.031,5-2.031
	c2.188,0,3.906,0.625,5.156,1.875c1.094,1.25,1.719,2.969,1.719,5.312v0.156h-3.906c0-1.406-0.156-2.344-0.625-2.969
	s-1.25-0.938-2.344-0.938c-0.938,0-1.562,0.312-2.188,1.094c-0.469,0.781-0.781,1.875-0.781,3.281v6.406
	c0,1.562,0.312,2.656,0.781,3.281c0.469,0.781,1.25,1.094,2.344,1.094c0.938,0,1.719-0.312,2.031-0.938
	c0.469-0.625,0.625-1.562,0.469-2.969h4.219V439.375z"/>
<path fill="#113556" d="M543.125,437.344h-1.875v8.75h-4.062V425h4.062v8.594h1.406l4.062-8.594h5l-5.781,9.688l6.25,11.406h-5
	L543.125,437.344z"/>
<path fill="#113556" d="M470,475.781h-4.062l-6.406-13.438h-0.156v13.438h-4.062v-21.094h4.062l6.406,13.438h0.156v-13.438H470
	V475.781z"/>
<path fill="#113556" d="M488.594,454.688v14.375c0,2.188-0.625,4.062-2.031,5.156c-1.25,1.25-2.969,1.875-5.156,1.875
	s-3.906-0.625-5.156-1.875s-2.031-2.969-2.031-5.156v-14.375h4.062v14.375c0,1.25,0.312,2.188,0.781,2.812s1.25,0.938,2.188,0.938
	s1.719-0.312,2.344-0.938s0.781-1.562,0.781-2.812v-14.375H488.594z"/>
<path fill="#113556" d="M498.125,454.688l3.75,15.469h0.156l3.75-15.469h5.312v21.094h-4.062v-6.094l0.312-8.281h-0.156
	l-4.062,14.375h-2.812l-4.062-14.219h-0.156l0.312,8.125v6.094h-4.062v-21.094H498.125z"/>
<path fill="#113556" d="M515.625,475.781v-21.094h6.25c2.188,0,3.906,0.469,5.156,1.406s1.875,2.344,1.875,4.375
	c0,0.938-0.156,1.875-0.625,2.656s-1.094,1.406-2.031,1.719c1.094,0.312,1.875,0.781,2.5,1.719c0.469,0.938,0.781,1.875,0.781,3.125
	c0,2.031-0.625,3.594-1.719,4.531c-1.094,1.094-2.812,1.562-5,1.562H515.625z M519.844,463.594h2.344
	c0.781,0,1.562-0.312,1.875-0.781c0.469-0.469,0.625-1.094,0.625-2.031s-0.156-1.719-0.625-2.188s-1.094-0.625-2.031-0.625H520
	v5.625H519.844z M519.844,466.562v6.094h2.969c0.938,0,1.562-0.312,1.875-0.781c0.469-0.469,0.625-1.25,0.625-2.188
	s-0.156-1.719-0.625-2.344c-0.312-0.469-0.938-0.781-1.719-0.781H519.844z"/>
<path fill="#113556" d="M544.688,466.562h-7.031v5.938h8.281v3.281h-12.5v-21.094h12.5v3.281h-8.281v5.312h7.031V466.562z"/>
<path fill="#113556" d="M553.594,467.5v8.438h-4.062v-21.25h6.875c2.031,0,3.75,0.625,4.844,1.719s1.719,2.656,1.719,4.531
	c0,1.094-0.312,2.031-0.781,2.812s-1.25,1.406-2.188,1.875c1.094,0.312,1.875,0.938,2.344,1.875
	c0.469,0.781,0.781,1.875,0.781,3.125v1.562c0,0.625,0,1.25,0.156,1.875s0.312,1.094,0.781,1.406v0.312h-4.219
	c-0.312-0.312-0.625-0.781-0.625-1.562s-0.156-1.406-0.156-2.188v-1.406c0-1.094-0.156-1.875-0.625-2.5s-1.094-0.938-1.875-0.938
	h-2.969V467.5z M553.594,464.219h2.812c0.781,0,1.406-0.312,1.875-0.781s0.625-1.25,0.625-2.188s-0.156-1.719-0.625-2.344
	s-1.094-0.781-1.875-0.781h-2.812V464.219z"/>
<path fill="#B05C30" d="M306.406,442.188h-5.625l-1.094,4.531h-4.219l5.938-21.094h4.219l5.938,21.094h-4.219L306.406,442.188z
	 M301.719,438.906h3.906l-1.875-7.5h-0.156L301.719,438.906z"/>
<path fill="#B05C30" d="M327.812,439.844L327.812,439.844c0,2.344-0.469,4.219-1.562,5.312c-1.094,1.25-2.812,1.719-5,1.719
	s-3.906-0.625-5.156-2.031s-2.031-3.281-2.031-5.625v-6.25c0-2.5,0.625-4.375,1.875-5.625c1.25-1.406,2.969-2.031,5-2.031
	c2.188,0,3.906,0.625,5.156,1.875c1.094,1.25,1.719,2.969,1.719,5.312v0.156h-3.906c0-1.406-0.156-2.344-0.625-2.969
	s-1.25-0.938-2.344-0.938c-0.938,0-1.562,0.312-2.188,1.094c-0.469,0.781-0.781,1.875-0.781,3.281v6.406
	c0,1.562,0.312,2.656,0.781,3.281c0.469,0.781,1.25,1.094,2.344,1.094c0.938,0,1.719-0.312,2.031-0.938
	c0.469-0.625,0.625-1.562,0.469-2.969h4.219V439.844z"/>
<path fill="#B05C30" d="M344.844,439.844L344.844,439.844c0,2.344-0.469,4.219-1.562,5.312c-1.094,1.25-2.812,1.719-5,1.719
	s-3.906-0.625-5.156-2.031s-2.031-3.281-2.031-5.625v-6.25c0-2.5,0.625-4.375,1.875-5.625c1.25-1.406,2.969-2.031,5-2.031
	c2.188,0,3.906,0.625,5.156,1.875c1.094,1.25,1.719,2.969,1.719,5.312v0.156h-3.906c0-1.406-0.156-2.344-0.625-2.969
	s-1.25-0.938-2.344-0.938c-0.938,0-1.562,0.312-2.188,1.094c-0.469,0.781-0.781,1.875-0.781,3.281v6.406
	c0,1.562,0.312,2.656,0.781,3.281c0.469,0.781,1.25,1.094,2.344,1.094c0.938,0,1.719-0.312,2.031-0.938
	c0.469-0.625,0.625-1.562,0.469-2.969h4.219V439.844z"/>
<path fill="#B05C30" d="M362.969,439.062c0,2.5-0.625,4.375-2.031,5.781s-3.125,2.031-5.312,2.031s-4.062-0.625-5.312-2.031
	s-2.031-3.281-2.031-5.781v-5.938c0-2.5,0.625-4.375,2.031-5.781s3.125-2.188,5.312-2.188s4.062,0.781,5.312,2.188
	c1.406,1.406,2.031,3.281,2.031,5.781V439.062z M358.906,433.125c0-1.562-0.312-2.656-0.781-3.438s-1.406-1.094-2.5-1.094
	s-1.875,0.312-2.5,1.094c-0.469,0.781-0.781,1.875-0.781,3.438v5.938c0,1.562,0.312,2.656,0.781,3.438
	c0.625,0.781,1.406,1.094,2.5,1.094s1.875-0.312,2.5-1.094s0.781-1.875,0.781-3.438V433.125z"/>
<path fill="#B05C30" d="M381.094,425.625V440c0,2.188-0.625,4.062-2.031,5.156c-1.25,1.25-2.969,1.875-5.156,1.875
	s-3.906-0.625-5.156-1.875s-2.031-2.969-2.031-5.156v-14.375h4.062V440c0,1.25,0.312,2.188,0.781,2.812s1.25,0.938,2.188,0.938
	s1.719-0.312,2.344-0.938s0.781-1.562,0.781-2.812v-14.375H381.094z"/>
<path fill="#B05C30" d="M400.156,446.719h-4.062l-6.406-13.438h-0.156v13.438h-4.062v-21.094h4.062l6.406,13.438h0.156v-13.438
	h4.062V446.719z"/>
<path fill="#B05C30" d="M416.719,428.906h-4.688v17.812h-4.219v-17.812h-4.688v-3.281h13.594V428.906z"/>
<path fill="#B05C30" d="M317.031,476.406h-4.062l-6.406-13.438h-0.156v13.438h-4.062v-21.094h4.062l6.406,13.438h0.156v-13.438
	h4.062V476.406z"/>
<path fill="#B05C30" d="M335.781,455.312v14.375c0,2.188-0.625,4.062-2.031,5.156c-1.25,1.25-2.969,1.875-5.156,1.875
	s-3.906-0.625-5.156-1.875s-2.031-2.969-2.031-5.156v-14.375h4.062v14.375c0,1.25,0.312,2.188,0.781,2.812s1.25,0.938,2.188,0.938
	s1.719-0.312,2.344-0.938s0.781-1.562,0.781-2.812v-14.375H335.781z"/>
<path fill="#B05C30" d="M345.312,455.312l3.75,15.469h0.156l3.75-15.469h5.312v21.094h-4.062v-6.094l0.312-8.281h-0.156
	l-4.062,14.375H347.5l-4.062-14.219h-0.156l0.312,8.125v6.094h-4.062v-21.094H345.312L345.312,455.312z"/>
<path fill="#B05C30" d="M362.812,476.406v-21.094h6.25c2.188,0,3.906,0.469,5.156,1.406s1.875,2.344,1.875,4.375
	c0,0.938-0.156,1.875-0.625,2.656s-1.094,1.406-2.031,1.719c1.094,0.312,1.875,0.781,2.5,1.719c0.469,0.938,0.781,1.875,0.781,3.125
	c0,2.031-0.625,3.594-1.719,4.531c-1.094,1.094-2.812,1.562-5,1.562H362.812z M366.875,464.219h2.344
	c0.781,0,1.562-0.312,1.875-0.781c0.469-0.469,0.625-1.094,0.625-2.031s-0.156-1.719-0.625-2.188s-1.094-0.625-2.031-0.625h-2.031
	v5.625H366.875z M366.875,467.031v6.094h2.969c0.938,0,1.562-0.312,1.875-0.781c0.469-0.469,0.625-1.25,0.625-2.188
	s-0.156-1.719-0.625-2.344c-0.312-0.469-0.938-0.781-1.719-0.781H366.875z"/>
<path fill="#B05C30" d="M391.875,467.188h-7.031v5.938h8.281v3.281h-12.5v-21.094h12.5v3.281h-8.281v5.312h7.031V467.188z"/>
<path fill="#B05C30" d="M400.625,467.969v8.438h-4.062v-21.094h6.875c2.031,0,3.75,0.625,4.844,1.719s1.719,2.656,1.719,4.531
	c0,1.094-0.312,2.031-0.781,2.812s-1.25,1.406-2.188,1.875c1.094,0.312,1.875,0.938,2.344,1.875
	c0.469,0.781,0.781,1.875,0.781,3.125v1.562c0,0.625,0,1.25,0.156,1.875s0.312,1.094,0.781,1.406v0.312h-4.219
	c-0.312-0.312-0.625-0.781-0.625-1.562s-0.156-1.406-0.156-2.188v-1.406c0-1.094-0.156-1.875-0.625-2.5s-1.094-0.938-1.875-0.938
	h-2.969V467.969z M400.625,464.688h2.812c0.781,0,1.406-0.312,1.875-0.781s0.625-1.25,0.625-2.188s-0.156-1.719-0.625-2.344
	s-1.094-0.781-1.875-0.781h-2.812V464.688z"/>
</svg>
