<?xml version="1.0" encoding="utf-8"?>
<!-- Generated by IcoMoon.io -->
<!DOCTYPE svg PUBLIC "-//W3C//DTD SVG 1.1//EN" "http://www.w3.org/Graphics/SVG/1.1/DTD/svg11.dtd">
<svg version="1.1" xmlns="http://www.w3.org/2000/svg" xmlns:xlink="http://www.w3.org/1999/xlink" width="32" height="32" viewBox="0 0 32 32">
<g>
	<line stroke-width="1" x1="" y1="" x2="" y2="" stroke="#449FDB" opacity=""></line>
</g>
	<path d="M16 0c-8.9 0-16 7.1-16 16s7.1 16 16 16 16-7.1 16-16-7.1-16-16-16zM19.6 16.6l3.2 3.2c0.4 0.4 0.4 0.7 0 1.1l-2 2c-0.4 0.4-0.7 0.4-1.1 0l-3.2-3.2c-0.4-0.4-0.7-0.4-1.1 0l-3.2 3.2c-0.4 0.4-0.7 0.4-1.1 0l-2-2c-0.4-0.4-0.4-0.7 0-1.1l3.2-3.2c0.4-0.4 0.4-0.7 0-1.1l-3.2-3.2c-0.4-0.4-0.4-0.7 0-1.1l2-2c0.4-0.4 0.7-0.4 1.1 0l3.2 3.2c0.4 0.4 0.7 0.4 1.1 0l3.2-3.2c0.4-0.4 0.7-0.4 1.1 0l2 2c0.4 0.4 0.4 0.7 0 1.1l-3.2 3.2c-0.4 0.3-0.4 0.7 0 1.1z" fill="#000000"></path>
</svg>
