<?xml version="1.0" ?><!DOCTYPE svg  PUBLIC '-//W3C//DTD SVG 1.1//EN'  'http://www.w3.org/Graphics/SVG/1.1/DTD/svg11.dtd'><svg height="32px" id="Layer_1" style="enable-background:new 0 0 512 315.176;" version="1.1" viewBox="0 0 512 315.176" width="32px" xml:space="preserve" xmlns="http://www.w3.org/2000/svg" xmlns:xlink="http://www.w3.org/1999/xlink"><g id="meanicons_x5F_39"><g><path d="M100.291,217.4l56.327,10.017v55.033c0,17.979,13.914,32.55,30.979,32.55h157.988c17.063,0,30.928-14.571,30.928-32.55    v-15.915l64.43,11.463V12.623l-340.652,60.59V217.4L100.291,217.4z M187.598,232.932l157.988,28.098v2.006    c0,13.521-9.974,24.5-22.24,24.5H209.829c-12.27,0-22.231-10.979-22.231-24.5V232.932z"/><polygon points="476.645,6.248 476.645,284.323 512.98,290.788 512.98,-0.176   "/><polygon points="0.98,79.487 0.98,90.852 0.98,90.852 0.98,199.762 0.98,199.762 0.98,211.076 23.98,203.838 64.592,211.076     64.592,79.487 23.98,86.73   "/></g></g><g id="Layer_1_1_"/></svg>
